<?xml version="1.0" encoding="utf-8"?>
<svg viewBox="0 0 100 100" xmlns="http://www.w3.org/2000/svg">
  <defs>
    <filter id="du">
      <feGaussianBlur stdDeviation=".4559"/>
    </filter>
    <filter id="dt">
      <feGaussianBlur stdDeviation=".55521"/>
    </filter>
    <filter id="cm">
      <feGaussianBlur stdDeviation=".26313"/>
    </filter>
    <filter id="cl">
      <feGaussianBlur stdDeviation=".31732"/>
    </filter>
    <filter id="d">
      <feGaussianBlur stdDeviation=".21702"/>
    </filter>
    <filter id="bn">
      <feGaussianBlur stdDeviation="2.57902"/>
    </filter>
    <filter id="c">
      <feGaussianBlur stdDeviation=".53236"/>
    </filter>
    <filter id="i">
      <feGaussianBlur stdDeviation=".58994"/>
    </filter>
    <filter id="f">
      <feGaussianBlur stdDeviation=".75327"/>
    </filter>
    <filter id="a" x="-.37767" y="-.52418" width="1.7553" height="2.0484">
      <feGaussianBlur stdDeviation=".45242"/>
    </filter>
    <filter id="eb" x="-.13687" y="-.11816" width="1.2737" height="1.2363">
      <feGaussianBlur stdDeviation=".22507"/>
    </filter>
    <filter id="dz" x="-.2137" y="-.48974" width="1.4274" height="1.9795">
      <feGaussianBlur stdDeviation=".43726"/>
    </filter>
    <filter id="dy" x="-.02929" y="-.1834" width="1.0586" height="1.3668">
      <feGaussianBlur stdDeviation=".41756"/>
    </filter>
    <filter id="dx" x="-.02952" y="-.16457" width="1.059" height="1.3292">
      <feGaussianBlur stdDeviation=".41756"/>
    </filter>
    <filter id="dw" x="-.02944" y="-.15333" width="1.0589" height="1.3067">
      <feGaussianBlur stdDeviation=".41756"/>
    </filter>
    <filter id="dv" x="-.02991" y="-.16702" width="1.0598" height="1.334">
      <feGaussianBlur stdDeviation=".41756"/>
    </filter>
    <filter id="ds" x="-.32831" y="-1.0068" width="1.6566" height="3.0136">
      <feGaussianBlur stdDeviation=".79457"/>
    </filter>
    <filter id="dr" x="-.22209" y="-.30205" width="1.4442" height="1.6041">
      <feGaussianBlur stdDeviation=".79457"/>
    </filter>
    <filter id="dq" x="-.9439" y="-1.2585" width="2.8878" height="3.5171">
      <feGaussianBlur stdDeviation=".79457"/>
    </filter>
    <filter id="dp" x="-.6041" y="-1.678" width="2.2082" height="4.3561">
      <feGaussianBlur stdDeviation=".79457"/>
    </filter>
    <filter id="do" x="-.50341" y="-.79487" width="2.0068" height="2.5897">
      <feGaussianBlur stdDeviation=".79457"/>
    </filter>
    <filter id="dn" x="-.9439" y="-.75512" width="2.8878" height="2.5102">
      <feGaussianBlur stdDeviation=".79457"/>
    </filter>
    <filter id="dm" x="-.17768" y="-.32054" width="1.3554" height="1.6411">
      <feGaussianBlur stdDeviation=".79457"/>
    </filter>
    <filter id="dl" x="-.53937" y="-1.373" width="2.0788" height="3.7459">
      <feGaussianBlur stdDeviation=".79457"/>
    </filter>
    <filter id="dk" x="-.51858" y="-.27116" width="2.0372" height="1.5423">
      <feGaussianBlur stdDeviation=".59804"/>
    </filter>
    <filter id="dj" x="-.33512" y="-.21893" width="1.6702" height="1.4379">
      <feGaussianBlur stdDeviation=".59804"/>
    </filter>
    <filter id="di" x="-.21893" y="-.27116" width="1.4379" height="1.5423">
      <feGaussianBlur stdDeviation=".59804"/>
    </filter>
    <filter id="dh" x="-.22771" y="-.20327" width="1.4554" height="1.4066">
      <feGaussianBlur stdDeviation=".59804"/>
    </filter>
    <filter id="dg" x="-.11688" y="-.12749" width="1.2338" height="1.255">
      <feGaussianBlur stdDeviation=".7938"/>
    </filter>
    <filter id="df" x="-.08094" y="-.10841" width="1.1619" height="1.2168">
      <feGaussianBlur stdDeviation=".57184"/>
    </filter>
    <filter id="de" x="-.02233" y="-.142" width="1.0447" height="1.284">
      <feGaussianBlur stdDeviation="1.02606"/>
    </filter>
    <filter id="b" x="-.26969" y="-.50341" width="1.5394" height="2.0068">
      <feGaussianBlur stdDeviation=".39729"/>
    </filter>
    <filter id="dd" x="-.15463" y="-.22446" width="1.3092" height="1.4489">
      <feGaussianBlur stdDeviation=".69084"/>
    </filter>
    <filter id="dc" x="-.77607" y="-.73276" width="2.5521" height="2.4655">
      <feGaussianBlur stdDeviation=".69084"/>
    </filter>
    <filter id="db" x="-.5066" y="-.8736" width="2.0132" height="2.7472">
      <feGaussianBlur stdDeviation=".69084"/>
    </filter>
    <filter id="da" x="-.20869" y="-.8801" width="1.4174" height="2.7602">
      <feGaussianBlur stdDeviation=".69084"/>
    </filter>
    <filter id="cz" x="-.14442" y="-.41137" width="1.2888" height="1.8227">
      <feGaussianBlur stdDeviation=".69084"/>
    </filter>
    <filter id="cy" x="-.57022" y="-.57022" width="2.1404" height="2.1404">
      <feGaussianBlur stdDeviation=".6876"/>
    </filter>
    <filter id="cx" x="-.72933" y="-.93891" width="2.4587" height="2.8778">
      <feGaussianBlur stdDeviation=".6876"/>
    </filter>
    <filter id="cw" x="-.6561" y="-1.1969" width="2.3122" height="3.3937">
      <feGaussianBlur stdDeviation=".6876"/>
    </filter>
    <filter id="cv" x="-.77243" y="-1.1969" width="2.5449" height="3.3937">
      <feGaussianBlur stdDeviation=".6876"/>
    </filter>
    <filter id="cu" x="-.40944" y="-.77243" width="1.8189" height="2.5449">
      <feGaussianBlur stdDeviation=".6876"/>
    </filter>
    <filter id="ct" x="-.3358" y="-.6561" width="1.6716" height="2.3122">
      <feGaussianBlur stdDeviation=".6876"/>
    </filter>
    <filter id="cs" x="-.29757" y="-.54638" width="1.5952" height="2.0928">
      <feGaussianBlur stdDeviation=".6876"/>
    </filter>
    <filter id="cr" x="-.22961" y="-.397" width="1.4592" height="1.794">
      <feGaussianBlur stdDeviation=".6876"/>
    </filter>
    <filter id="cq" x="-.15211" y="-.16991" width="1.3042" height="1.3398">
      <feGaussianBlur stdDeviation=".6876"/>
    </filter>
    <filter id="cp" x="-.59624" y="-.72933" width="2.1925" height="2.4587">
      <feGaussianBlur stdDeviation=".6876"/>
    </filter>
    <filter id="co" x="-.42268" y="-.48549" width="1.8454" height="1.971">
      <feGaussianBlur stdDeviation=".6876"/>
    </filter>
    <filter id="cn" x="-.25108" y="-.22817" width="1.5022" height="1.4563">
      <feGaussianBlur stdDeviation=".26313"/>
    </filter>
    <filter id="ck" x="-.19801" y="-.15618" width="1.396" height="1.3124">
      <feGaussianBlur stdDeviation=".6204"/>
    </filter>
    <filter id="cj" x="-.14192" y="-.12318" width="1.2838" height="1.2464">
      <feGaussianBlur stdDeviation=".6204"/>
    </filter>
    <filter id="ci" x="-.21561" y="-.16845" width="1.4312" height="1.3369">
      <feGaussianBlur stdDeviation=".6204"/>
    </filter>
    <filter id="ch" x="-.16" y="-.16455" width="1.32" height="1.3291">
      <feGaussianBlur stdDeviation=".58062"/>
    </filter>
    <filter id="cg" x="-.29891" y="-.21256" width="1.5978" height="1.4251">
      <feGaussianBlur stdDeviation=".58062"/>
    </filter>
    <filter id="cc" x="-1.0436" y="-2.3482" width="3.0873" height="5.6963">
      <feGaussianBlur stdDeviation=".9784"/>
    </filter>
    <filter id="cb" x="-.34067" y="-.45978" width="1.6813" height="1.9196">
      <feGaussianBlur stdDeviation=".9784"/>
    </filter>
    <filter id="ca" x="-.30868" y="-2.3482" width="1.6174" height="5.6963">
      <feGaussianBlur stdDeviation=".9784"/>
    </filter>
    <filter id="bz" x="-.27057" y="-.70698" width="1.5411" height="2.414">
      <feGaussianBlur stdDeviation=".9784"/>
    </filter>
    <filter id="by" x="-.1673" y="-.79215" width="1.3346" height="2.5843">
      <feGaussianBlur stdDeviation=".9784"/>
    </filter>
    <filter id="bx" x="-.21006" y="-.35928" width="1.4201" height="1.7186">
      <feGaussianBlur stdDeviation=".9784"/>
    </filter>
    <filter id="bw" x="-.34973" y="-1.9924" width="1.6995" height="4.9848">
      <feGaussianBlur stdDeviation=".9784"/>
    </filter>
    <filter id="bv" x="-.42973" y="-.74715" width="1.8595" height="2.4943">
      <feGaussianBlur stdDeviation=".9784"/>
    </filter>
    <filter id="bu" x="-.58185" y="-1.3698" width="2.1637" height="3.7395">
      <feGaussianBlur stdDeviation=".9784"/>
    </filter>
    <filter id="bt" x="-.63834" y="-1.0436" width="2.2767" height="3.0873">
      <feGaussianBlur stdDeviation=".9784"/>
    </filter>
    <filter id="bs" x="-.79216" y="-1.0436" width="2.5843" height="3.0873">
      <feGaussianBlur stdDeviation=".9784"/>
    </filter>
    <filter id="br" x="-.74714" y="-1.0436" width="2.4943" height="3.0873">
      <feGaussianBlur stdDeviation=".9784"/>
    </filter>
    <filter id="bq" x="-.90067" y="-.84293" width="2.8013" height="2.6859">
      <feGaussianBlur stdDeviation=".9784"/>
    </filter>
    <filter id="bp" x="-.79215" y="-1.1336" width="2.5843" height="3.2672">
      <feGaussianBlur stdDeviation=".9784"/>
    </filter>
    <filter id="bo" x="-.60878" y="-.96689" width="2.2176" height="2.9338">
      <feGaussianBlur stdDeviation=".9784"/>
    </filter>
    <filter id="bm" x="-.13248" y="-.30215" width="1.265" height="1.6043">
      <feGaussianBlur stdDeviation=".571"/>
    </filter>
    <filter id="bl" x="-.10057" y="-.22648" width="1.2011" height="1.453">
      <feGaussianBlur stdDeviation=".571"/>
    </filter>
    <filter id="bk" x="-.18738" y="-.30215" width="1.3748" height="1.6043">
      <feGaussianBlur stdDeviation=".571"/>
    </filter>
    <filter id="bj" x="-.15522" y="-.41872" width="1.3104" height="1.8374">
      <feGaussianBlur stdDeviation=".571"/>
    </filter>
    <filter id="bi" x="-.10246" y="-.27187" width="1.2049" height="1.5438">
      <feGaussianBlur stdDeviation=".571"/>
    </filter>
    <filter id="bh" x="-.2589" y="-.77969" width="1.5178" height="2.5594">
      <feGaussianBlur stdDeviation=".571"/>
    </filter>
    <filter id="bg" x="-.12677" y="-.32721" width="1.2535" height="1.6544">
      <feGaussianBlur stdDeviation=".34628"/>
    </filter>
    <filter id="bf" x="-.05778" y="-.2062" width="1.1156" height="1.4124">
      <feGaussianBlur stdDeviation=".34628"/>
    </filter>
    <filter id="be" x="-.1062" y="-.13421" width="1.2124" height="1.2684">
      <feGaussianBlur stdDeviation=".26775"/>
    </filter>
    <filter id="bd" x="-.08787" y="-.11083" width="1.1757" height="1.2217">
      <feGaussianBlur stdDeviation=".26775"/>
    </filter>
    <filter id="bc" x="-.12513" y="-.26245" width="1.2503" height="1.5249">
      <feGaussianBlur stdDeviation=".57882"/>
    </filter>
    <filter id="bb" x="-.11714" y="-.39405" width="1.2343" height="1.7881">
      <feGaussianBlur stdDeviation=".57882"/>
    </filter>
    <filter id="ba" x="-.12513" y="-.2119" width="1.2503" height="1.4238">
      <feGaussianBlur stdDeviation=".57882"/>
    </filter>
    <filter id="az" x="-.12513" y="-.2756" width="1.2503" height="1.5512">
      <feGaussianBlur stdDeviation=".57882"/>
    </filter>
    <filter id="ay" x="-.10587" y="-.22039" width="1.2117" height="1.4408">
      <feGaussianBlur stdDeviation=".57882"/>
    </filter>
    <filter id="ax" x="-.1846" y="-.12297" width="1.3692" height="1.2459">
      <feGaussianBlur stdDeviation=".31001"/>
    </filter>
    <filter id="aw" x="-.16405" y="-.10928" width="1.3281" height="1.2186">
      <feGaussianBlur stdDeviation=".31001"/>
    </filter>
    <filter id="av" x="-.02171" y="-.12557" width="1.0434" height="1.2512">
      <feGaussianBlur stdDeviation=".53236"/>
    </filter>
    <filter id="au" x="-.07997" y="-1.386" width="1.1599" height="3.7721">
      <feGaussianBlur stdDeviation=".72335"/>
    </filter>
    <filter id="at" x="-.0272" y="-.11367" width="1.0544" height="1.2273">
      <feGaussianBlur stdDeviation=".43641"/>
    </filter>
    <filter id="e" x="-.19024" y="-.38049" width="1.3805" height="1.761">
      <feGaussianBlur stdDeviation=".31141"/>
    </filter>
    <filter id="as" x="-.62619" y="-1.6973" width="2.2524" height="4.3946">
      <feGaussianBlur stdDeviation=".95979"/>
    </filter>
    <filter id="ar" x="-.62619" y="-.62619" width="2.2524" height="2.2524">
      <feGaussianBlur stdDeviation=".95979"/>
    </filter>
    <filter id="aq" x="-.5972" y="-.77708" width="2.1944" height="2.5542">
      <feGaussianBlur stdDeviation=".95979"/>
    </filter>
    <filter id="ap" x="-.09069" y="-.2592" width="1.1814" height="1.5184">
      <feGaussianBlur stdDeviation=".57085"/>
    </filter>
    <filter id="ao" x="-.48152" y="-.10568" width="1.963" height="1.2114">
      <feGaussianBlur stdDeviation=".57085"/>
    </filter>
    <filter id="an" x="-.1332" y="-.6089" width="1.2664" height="2.2178">
      <feGaussianBlur stdDeviation=".57085"/>
    </filter>
    <filter id="am" x="-.20405" y="-.03643" width="1.4081" height="1.0729">
      <feGaussianBlur stdDeviation=".57085"/>
    </filter>
    <filter id="al" x="-.50873" y="-2.1274" width="2.0175" height="5.2548">
      <feGaussianBlur stdDeviation="1.04472"/>
    </filter>
    <filter id="ak" x="-1.4626" y="-1.2104" width="3.9252" height="3.4209">
      <feGaussianBlur stdDeviation="1.04472"/>
    </filter>
    <filter id="aj" x="-1.0324" y="-1.0324" width="3.0648" height="3.0648">
      <feGaussianBlur stdDeviation="1.04472"/>
    </filter>
    <filter id="ai" x="-1.1144" y="-.79778" width="3.2287" height="2.5956">
      <feGaussianBlur stdDeviation="1.04472"/>
    </filter>
    <filter id="ah" x="-1.1144" y="-1.2104" width="3.2287" height="3.4209">
      <feGaussianBlur stdDeviation="1.04472"/>
    </filter>
    <filter id="ag" x="-.90006" y="-1.1144" width="2.8001" height="3.2287">
      <feGaussianBlur stdDeviation="1.04472"/>
    </filter>
    <filter id="af" x="-.55827" y="-.51875" width="2.1165" height="2.0375">
      <feGaussianBlur stdDeviation="1.04472"/>
    </filter>
    <filter id="ae" x="-.84584" y="-.96171" width="2.6917" height="2.9234">
      <feGaussianBlur stdDeviation="1.04472"/>
    </filter>
    <filter id="ad" x="-2.5073" y="-2.2043" width="6.0146" height="5.4086">
      <feGaussianBlur stdDeviation="1.04472"/>
    </filter>
    <filter id="ac" x="-.24484" y="-.41565" width="1.4897" height="1.8313">
      <feGaussianBlur stdDeviation=".26597"/>
    </filter>
    <filter id="ab" x="-.24484" y="-.47035" width="1.4897" height="1.9407">
      <feGaussianBlur stdDeviation=".26597"/>
    </filter>
    <filter id="aa" x="-.19219" y="-.37236" width="1.3844" height="1.7447">
      <feGaussianBlur stdDeviation=".26597"/>
    </filter>
    <filter id="z" x="-.1966" y="-.39649" width="1.3932" height="1.793">
      <feGaussianBlur stdDeviation="1.13164"/>
    </filter>
    <filter id="y" x="-.21616" y="-.35905" width="1.4323" height="1.7181">
      <feGaussianBlur stdDeviation="1.13164"/>
    </filter>
    <filter id="x" x="-.19409" y="-.32807" width="1.3882" height="1.6561">
      <feGaussianBlur stdDeviation="1.13164"/>
    </filter>
    <filter id="w" x="-.19165" y="-.30201" width="1.3833" height="1.604">
      <feGaussianBlur stdDeviation="1.13164"/>
    </filter>
    <filter id="v" x="-.20182" y="-.3145" width="1.4036" height="1.629">
      <feGaussianBlur stdDeviation="1.13164"/>
    </filter>
    <filter id="u" x="-.04404" y="-.11319" width="1.0881" height="1.2264">
      <feGaussianBlur stdDeviation=".49354"/>
    </filter>
    <filter id="t" x="-.03844" y="-.30542" width="1.0769" height="1.6108">
      <feGaussianBlur stdDeviation=".49085"/>
    </filter>
    <filter id="s" x="-.13277" y="-.78606" width="1.2655" height="2.5721">
      <feGaussianBlur stdDeviation=".73693"/>
    </filter>
    <filter id="r" x="-.08494" y="-.93438" width="1.1699" height="2.8688">
      <feGaussianBlur stdDeviation=".73693"/>
    </filter>
    <filter id="q" x="-.08351" y="-.6349" width="1.167" height="2.2698">
      <feGaussianBlur stdDeviation=".73693"/>
    </filter>
    <filter id="p" x="-.93438" y="-.07469" width="2.8688" height="1.1494">
      <feGaussianBlur stdDeviation=".73693"/>
    </filter>
    <filter id="o" x="-1.5007" y="-.07886" width="4.0013" height="1.1577">
      <feGaussianBlur stdDeviation=".73693"/>
    </filter>
    <filter id="n" x="-1.2691" y="-.08955" width="3.5382" height="1.1791">
      <feGaussianBlur stdDeviation=".73693"/>
    </filter>
    <filter id="m" x="-1.7591" y="-.3363" width="4.5182" height="1.6726">
      <feGaussianBlur stdDeviation="2.04181"/>
    </filter>
    <filter id="l" x="-.99427" y="-.39428" width="2.9886" height="1.7886">
      <feGaussianBlur stdDeviation="2.04181"/>
    </filter>
    <filter id="k" x="-.12087" y="-.40453" width="1.2417" height="1.8091">
      <feGaussianBlur stdDeviation=".58994"/>
    </filter>
    <filter id="j" x="-.68352" y="-.07653" width="2.367" height="1.1531">
      <feGaussianBlur stdDeviation=".58994"/>
    </filter>
    <filter id="h" x="-.05599" y="-.13765" width="1.112" height="1.2753">
      <feGaussianBlur stdDeviation=".58994"/>
    </filter>
    <filter id="g" x="-.33596" y="-.18185" width="1.6719" height="1.3637">
      <feGaussianBlur stdDeviation=".58994"/>
    </filter>
    <filter id="fd" x="-.1115" y="-.05383" width="1.223" height="1.1076">
      <feGaussianBlur stdDeviation=".27875"/>
    </filter>
    <filter id="fc" x="-.06504" y="-.15874" width="1.1301" height="1.3175">
      <feGaussianBlur stdDeviation=".27875"/>
    </filter>
    <filter id="fb" x="-.1115" y="-.09006" width="1.223" height="1.1801">
      <feGaussianBlur stdDeviation=".27875"/>
    </filter>
    <filter id="fa" x="-.66899" y="-.05711" width="2.338" height="1.1142">
      <feGaussianBlur stdDeviation=".27875"/>
    </filter>
    <filter id="ez" x="-.39025" y="-.05711" width="1.7805" height="1.1142">
      <feGaussianBlur stdDeviation=".27875"/>
    </filter>
    <filter id="ey" x="-.24015" y="-.06504" width="1.4803" height="1.1301">
      <feGaussianBlur stdDeviation=".27875"/>
    </filter>
    <filter id="ex" x="-.1086" y="-.06641" width="1.2172" height="1.1328">
      <feGaussianBlur stdDeviation=".78862"/>
    </filter>
    <filter id="ew" x="-.44911" y="-.28189" width="1.8982" height="1.5638">
      <feGaussianBlur stdDeviation=".78862"/>
    </filter>
    <filter id="ev" x="-.21369" y="-.08054" width="1.4274" height="1.1611">
      <feGaussianBlur stdDeviation=".78862"/>
    </filter>
    <filter id="eu" x="-.0728" y="-.14803" width="1.1456" height="1.2961">
      <feGaussianBlur stdDeviation=".78862"/>
    </filter>
    <filter id="et" x="-.11571" y="-.11087" width="1.2314" height="1.2217">
      <feGaussianBlur stdDeviation=".78862"/>
    </filter>
    <filter id="es" x="-.26765" y="-.12989" width="1.5353" height="1.2598">
      <feGaussianBlur stdDeviation=".78862"/>
    </filter>
    <filter id="er" x="-.53823" y="-.177" width="2.0765" height="1.354">
      <feGaussianBlur stdDeviation=".78492"/>
    </filter>
    <filter id="eq" x="-.20444" y="-.2664" width="1.4089" height="1.5328">
      <feGaussianBlur stdDeviation=".78492"/>
    </filter>
    <filter id="ep" x="-.18315" y="-.11035" width="1.3663" height="1.2207">
      <feGaussianBlur stdDeviation=".78492"/>
    </filter>
    <filter id="eo" x="-.22162" y="-.08675" width="1.4432" height="1.1735">
      <feGaussianBlur stdDeviation=".78492"/>
    </filter>
    <filter id="en" x="-.19681" y="-.31397" width="1.3936" height="1.6279">
      <feGaussianBlur stdDeviation=".78492"/>
    </filter>
    <filter id="em" x="-.28057" y="-.14333" width="1.5611" height="1.2867">
      <feGaussianBlur stdDeviation=".78492"/>
    </filter>
    <filter id="el" x="-.59939" y="-.11774" width="2.1988" height="1.2355">
      <feGaussianBlur stdDeviation=".78492"/>
    </filter>
    <filter id="ek" x="-.13786" y="-.32768" width="1.2757" height="1.6554">
      <feGaussianBlur stdDeviation=".67291"/>
    </filter>
    <filter id="ej" x="-.38322" y="-.09873" width="1.7664" height="1.1975">
      <feGaussianBlur stdDeviation=".67291"/>
    </filter>
    <filter id="ei" x="-.11963" y="-.12994" width="1.2393" height="1.2599">
      <feGaussianBlur stdDeviation=".67291"/>
    </filter>
    <filter id="eh" x="-.09662" y="-.77965" width="1.1932" height="2.5593">
      <feGaussianBlur stdDeviation=".67291"/>
    </filter>
    <filter id="eg" x="-.28438" y="-.1962" width="1.5688" height="1.3924">
      <feGaussianBlur stdDeviation=".75327"/>
    </filter>
    <filter id="ef" x="-.13391" y="-.28438" width="1.2678" height="1.5688">
      <feGaussianBlur stdDeviation=".75327"/>
    </filter>
    <filter id="ee" x="-.47919" y="-.68076" width="1.9584" height="2.3615">
      <feGaussianBlur stdDeviation="1.25853"/>
    </filter>
    <filter id="ed" x="-.36288" y="-1.3349" width="1.7258" height="3.6698">
      <feGaussianBlur stdDeviation="1.25853"/>
    </filter>
    <filter id="ec" x="-.22584" y="-1.7185" width="1.4517" height="4.437">
      <feGaussianBlur stdDeviation="1.25853"/>
    </filter>
    <filter id="ea" x="-.07903" y="-.26689" width="1.1581" height="1.5338"/>
    <filter id="cf" x="-.2262" y="-.23767" width="1.4524" height="1.4753"/>
    <filter id="ce" x="-.1369" y="-.07677" width="1.2738" height="1.1535"/>
    <filter id="cd" x="-.11946" y="-.07259" width="1.2389" height="1.1452"/>
  </defs>
  <g transform="matrix(-0.251841, 0, 0, 0.229537, 99.999306, 0.001583)">
    <g transform="translate(-130.17 -270.06)">
      <path d="m249.19 529.69s25.254 5.5558 30.557 6.566 12.374 1.2627 12.374 1.2627 6.3135 23.991 8.0812 27.779 15.91 24.496 15.91 24.496l9.3439 1.5152 4.5457-2.5254 0.25254 10.354s-13.385 4.7982-14.647 4.7982-12.627-0.50508-12.627-0.50508l-1.0102-9.849-2.2728-1.0102-0.75762-8.3338-4.4284-1.5892-0.83159-7.7547-2.1555-2.7652-0.87491-7.2317-0.80094-0.60968-0.75762-9.3439-2.9132-1.2933-0.8749-8.5557-37.942-3.7881-2.4641-12.122 1.2627 0.75762 3.0305-0.25254z" fill="#a67531" fill-rule="evenodd"/>
      <path d="m248.02 529.73 5.2166-3.3136 41.669 7.0711 25.254 50.508 16.668 0.25254-7.3184 7.2496-14.387-1.1581-16.162-24.853-7.9026-27.749-9.3492-0.43111-33.687-7.5762z" fill="#ce9a52" fill-rule="evenodd"/>
      <path d="m432.86 539.51s-49.286-5-55.714-5-19.286 0.71429-21.429 3.9286l-4.2857 6.4286s-22.143 13.929-26.071 15.714-22.5 12.143-28.214 9.6429-7.1429-5-7.5-8.2143-2.1429-49.643-1.4286-59.643 6.4286-41.786 6.4286-41.786-3.2143-17.143-3.9286-23.571 0.71428-31.071 1.4286-37.857-1.0714-14.286 1.4286-15 16.071-3.9286 19.286-4.6429 7.8572-4.2857 10.714-4.2857 7.5 2.1428 9.6429 1.0714 6.7857-3.9286 6.7857-3.9286 5 3.5714 9.2857 2.5 6.7857-3.2143 6.7857-3.2143h13.571c3.5714 0 6.7857-0.71429 8.9286-0.35715s12.857 2.1429 15 1.7857 8.9286-2.5 10.714-1.7857 5.3571 10.357 7.8571 13.214 9.6429 8.5714 13.929 22.5 3.5714 28.929 3.5714 32.143-1.0714 6.0714-1.0714 6.0714 13.929 23.929 13.929 43.214-3.5714 36.429-3.5714 36.429 2.5 7.1429 1.7857 8.5714-2.1429 4.6429-3.9286 5.7143-3.5714 0.71428-3.9286 0.35714z" fill="#8c6e66" fill-rule="evenodd" stroke="#000"/>
      <path d="m306.79 445.93 34.643-23.571 15-6.0714s18.571 4.6429 20 4.6429 35 0.35714 35 0.35714l10 7.8572 9.2857 10-1.7857 7.5-15.714-2.8572-18.214 1.4286-17.143-0.35715s0.71429 1.0714-1.7857 2.1429-14.286 1.0714-14.286 1.0714l-8.2143 2.1429h-6.0714l-2.8571-0.35715-2.1429-3.9286-8.9286 5s-5.3571 2.5-8.2143 2.5h-10.357c-1.4286 0-6.0714 2.8571-6.0714 2.8571s-2.5 1.0714-3.2143-1.4286 1.4286-8.2143 1.0714-8.9286z" fill="#684a2e" fill-rule="evenodd"/>
      <path d="m147.68 526.47 45-13.75 3.5714 0.53571v1.25l12.143 1.0714 4.6429 1.7857 1.25 5.3572s-1.4286 6.0714-2.1429 7.1428-0.17858 4.6429-0.17858 4.6429l-5.1786 4.8214-16.429 4.1071s-5.3571-2.5-7.6786-3.5714-11.786-9.6428-11.786-9.6428-5.5357-2.1429-6.6071-2.1429-5.7143 0-7.1429-0.17857-9.4643-1.25-9.4643-1.4286z" fill="#ae7322" fill-rule="evenodd"/>
      <path d="m164.82 527.9c1.9643-0.35714 32.857-10 32.857-10l12.321 0.71428 0.35716-2.5-14.107-1.25v-1.4286l-3.3928-1.0714-45.536 14.107 17.5 1.4286z" fill="#8f5817" fill-rule="evenodd"/>
      <path d="m194.46 510.93 0.17857-1.4286 1.25-0.71429-0.71429-14.107-1.0714-0.89286 0.17859-1.25-2.3214-0.71428v-1.0714l2.5-1.25s-1.4286-4.2857 2.5-4.1071 3.9286 3.75 3.9286 3.75l5.1786 0.71428 1.25-1.4286-1.9643-5h-1.0714l1.9643-5-1.4286-1.9643 1.7857-0.89286s-0.17856-3.75 1.7857-3.9286 3.5714 3.5714 3.5714 3.5714l1.4286 0.53571-1.25 2.6786 4.1071 4.1071-1.9643 0.53572-0.71429 5.8929 1.0714 1.7857 6.7857-0.53571 0.17856-2.3214s0.53573-1.4286 3.0357-1.4286 3.5714 1.9643 3.5714 1.9643l0.17858 2.3214 4.1071-0.53571 3.5714 2.5 3.0357 5.8928s1.6072-3.0357 3.75-3.0357 3.9286 3.0357 3.9286 3.0357l-0.53573 1.9643 5.5357-0.53572s2.5 0.35715 2.6786 3.0357-6.9643 4.2857-6.9643 4.2857h-0.53571l0.35715 13.393 1.6071 0.53571-0.17858 1.4286 1.0714 0.35714-0.17857 2.1429 2.5 0.71428s0.89286 1.4286 0.17857 1.4286-5 2.6786-5 2.6786l-1.9643-0.53571-3.3928-12.5-1.0714-7.1429 0.35713-5.5357-5.1786-1.6071-1.9643-1.6072-5-6.25-1.0714-0.17857v4.8214l-3.3929-4.1071-23.214-1.9643-0.53571 0.53572h-1.0714l1.4286 6.7857 1.0714 13.929-5.8929-0.53571v-1.25l-4.6428-0.71429 0.17857-1.4286 2.5 0.17857z" fill="#25170d" fill-rule="evenodd"/>
      <path d="m196.25 486.47 1.0714 1.6071 0.89285-0.71429-1.9643-0.89285z" fill="#f4de07" fill-rule="evenodd" filter="url(#ae)" stroke="#f5e122"/>
      <path d="m209.29 479.33s3.0357 4.1071 3.0357 3.3929 0.89285-3.75 0.17856-3.75-2.6786 0.35714-3.2143 0.35714z" fill="#f4de07" fill-rule="evenodd" filter="url(#af)" stroke="#f5e122"/>
      <path d="m209.46 476.83 1.6072-0.89286 0.17856 1.25" fill="#f4de07" fill-rule="evenodd" filter="url(#ag)" stroke="#f5e122"/>
      <path d="m212.14 489.86 1.25 1.0714" fill="#f4de07" fill-rule="evenodd" filter="url(#ah)" stroke="#f5e122"/>
      <path d="m229.29 492.72 1.25 2.1428" fill="#f4de07" fill-rule="evenodd" filter="url(#ai)" stroke="#f5e122"/>
      <path d="m223.93 487.54 1.4286 1.4286" fill="#f4de07" fill-rule="evenodd" filter="url(#aj)" stroke="#f5e122"/>
      <path d="m242.5 496.47 0.71429 1.0714" fill="#f4de07" fill-rule="evenodd" filter="url(#ak)" stroke="#f5e122"/>
      <path d="m235.54 500.4 3.9286-0.17857" fill="#f4de07" fill-rule="evenodd" filter="url(#al)" stroke="#f5e122"/>
      <path d="m191.11 623.13 2.2728 12.879s3.283 10.607 10.859 21.466 15.152 20.456 15.152 20.456 1.5152 3.7881 6.8185 5.3033 102.53 21.718 105.81 21.971 25.506 1.5152 46.467-2.2728 32.325-12.627 34.85-15.657 8.5863-16.668 10.102-19.951 6.8185-13.637 12.122-18.688l5.3033-5.0508-10.102-1.0102-59.316-2.3106-108.04-10.629-65.481-11.989-6.8185 5.4828z" fill="#2c1a0a" fill-rule="evenodd"/>
      <path d="m330.51 650.16s-30.052-0.25254-43.942-1.2627-37.881-6.3134-37.881-6.3134-2.5254-0.75762-3.7881-2.0203-3.5355-9.5964-5.0508-10.354-14.647-5.0508-14.647-5.0508l-0.25254 4.5457s-3.283 6.3134-14.647 5.3033-19.445-11.364-19.445-11.364l-1.5152-12.627-36.366-15.405s-9.1074-4.9788-6.566-16.415c1.0102-4.5457 5.5558-5.0508 5.5558-5.0508s-3.0305-15.152-3.0305-17.173-12.374-25.001-12.374-25.001l23.739 1.5152-2.5254 4.0406s3.7881-3.0305 6.566-2.5254 6.8185 7.3236 9.0914 9.0914 18.183 9.849 22.223 10.607 35.608 6.3135 35.608 6.3135l8.5863-0.50508 8.5863 34.85 13.385 18.94s27.527 6.566 29.042 6.566 18.183 1.5152 18.183 1.5152l4.7982-2.7779 0.50508 7.3236s1.7678 5.8084 5.0508 10.607 11.869 13.132 11.112 12.627z" fill="#854f10" fill-rule="evenodd"/>
      <path d="m225 601.65 17.5 5.1786 8.75 13.036 30.357 6.25 31.964 1.4286 3.9286 7.6786 8.3929 11.071-31.429-0.17857s-33.75-4.2857-34.464-4.8214-13.214-3.75-13.214-3.75l-6.25-11.607-15.893-5.1786 0.35713-19.107z" fill="#781a18" fill-rule="evenodd"/>
      <path d="m158.66 567.2-0.63135-16.794s0.75762 7.4499 5.9346 7.3236 5.5558-1.2627 6.3135-2.0203 1.7678-3.6618 1.7678-5.177v-1.5152s5.5558 3.6618 6.0609 3.7881 18.435 6.0609 20.961 6.8185 23.612 5.6821 23.612 5.6821-0.63133 4.2931 1.389 6.1872 5.0508 3.0305 5.0508 3.0305l5.8084 22.602-7.5762-2.9042-2.0203-5.8084-31.82-4.9245-23.612-11.996s-1.894-5.0508-5.6821-5.6821-5.5558 1.6415-5.5558 1.389z" fill="#781a18" fill-rule="evenodd"/>
      <path d="m274.46 683.17 1.4286-34.018 33.125 5.3571-0.5357 32.857-34.018-4.1964z" fill="#2f1f00" fill-rule="evenodd" filter="url(#du)" stroke="#000"/>
      <path d="m308.57 663.88-32.5-5" fill="#2f1f00" fill-rule="evenodd" filter="url(#dv)" stroke="#161000"/>
      <path d="m308.57 670.58-33.036-5.5357" fill="#2f1f00" fill-rule="evenodd" filter="url(#dw)" stroke="#161000"/>
      <path d="m308.57 677.01-32.946-5.0893" fill="#2f1f00" fill-rule="evenodd" filter="url(#dx)" stroke="#161000"/>
      <path d="m308.48 682.27-33.214-4.4643" fill="#2f1f00" fill-rule="evenodd" filter="url(#dy)" stroke="#161000"/>
      <g transform="translate(-61.429 -1.4286)">
        <path transform="matrix(.39852 0 0 .39852 199.97 435.53)" d="m405.58 618.5a5.0508 4.7982 0 1 1 -10.102 0 5.0508 4.7982 0 1 1 10.102 0z" fill="#593c00"/>
        <path d="m358.83929,681.20146 .98214.08929 .89286-.44643-1.07143-.625-.625.35714-.17857.625z" fill="none" filter="url(#a)" stroke="#ffd367"/>
      </g>
      <g transform="translate(-60.035 -8.6575)">
        <path transform="matrix(.39852 0 0 .39852 199.97 435.53)" d="m405.58 618.5a5.0508 4.7982 0 1 1 -10.102 0 5.0508 4.7982 0 1 1 10.102 0z" fill="#593c00"/>
        <path d="m358.83929,681.20146 .98214.08929 .89286-.44643-1.07143-.625-.625.35714-.17857.625z" fill="none" filter="url(#a)" stroke="#ffd367"/>
      </g>
      <g transform="translate(-59.767 -14.997)">
        <path transform="matrix(.39852 0 0 .39852 199.97 435.53)" d="m405.58 618.5a5.0508 4.7982 0 1 1 -10.102 0 5.0508 4.7982 0 1 1 10.102 0z" fill="#593c00"/>
        <path d="m358.83929,681.20146 .98214.08929 .89286-.44643-1.07143-.625-.625.35714-.17857.625z" fill="none" filter="url(#a)" stroke="#ffd367"/>
      </g>
      <g transform="translate(-60.66 -21.157)">
        <path transform="matrix(.39852 0 0 .39852 199.97 435.53)" d="m405.58 618.5a5.0508 4.7982 0 1 1 -10.102 0 5.0508 4.7982 0 1 1 10.102 0z" fill="#593c00"/>
        <path d="m358.83929,681.20146 .98214.08929 .89286-.44643-1.07143-.625-.625.35714-.17857.625z" fill="none" filter="url(#a)" stroke="#ffd367"/>
      </g>
      <g transform="translate(-61.946 -25.265)">
        <path transform="matrix(.39852 0 0 .39852 199.97 435.53)" d="m405.58 618.5a5.0508 4.7982 0 1 1 -10.102 0 5.0508 4.7982 0 1 1 10.102 0z" fill="#593c00"/>
        <path d="m358.83929,681.20146 .98214.08929 .89286-.44643-1.07143-.625-.625.35714-.17857.625z" fill="none" filter="url(#a)" stroke="#ffd367"/>
      </g>
      <g transform="translate(-76.642 -2.0503)">
        <path transform="matrix(.39852 0 0 .39852 199.97 435.53)" d="m405.58 618.5a5.0508 4.7982 0 1 1 -10.102 0 5.0508 4.7982 0 1 1 10.102 0z" fill="#593c00"/>
        <path d="m358.83929,681.20146 .98214.08929 .89286-.44643-1.07143-.625-.625.35714-.17857.625z" fill="none" filter="url(#a)" stroke="#ffd367"/>
      </g>
      <g transform="translate(-77.892 -9.6396)">
        <path transform="matrix(.39852 0 0 .39852 199.97 435.53)" d="m405.58 618.5a5.0508 4.7982 0 1 1 -10.102 0 5.0508 4.7982 0 1 1 10.102 0z" fill="#593c00"/>
        <path d="m358.83929,681.20146 .98214.08929 .89286-.44643-1.07143-.625-.625.35714-.17857.625z" fill="none" filter="url(#a)" stroke="#ffd367"/>
      </g>
      <g transform="translate(-77.982 -21.247)">
        <path transform="matrix(.39852 0 0 .39852 199.97 435.53)" d="m405.58 618.5a5.0508 4.7982 0 1 1 -10.102 0 5.0508 4.7982 0 1 1 10.102 0z" fill="#593c00"/>
        <path d="m358.83929,681.20146 .98214.08929 .89286-.44643-1.07143-.625-.625.35714-.17857.625z" fill="none" filter="url(#a)" stroke="#ffd367"/>
      </g>
      <g transform="translate(-76.91 -25.532)">
        <path transform="matrix(.39852 0 0 .39852 199.97 435.53)" d="m405.58 618.5a5.0508 4.7982 0 1 1 -10.102 0 5.0508 4.7982 0 1 1 10.102 0z" fill="#593c00"/>
        <path d="m358.83929,681.20146 .98214.08929 .89286-.44643-1.07143-.625-.625.35714-.17857.625z" fill="none" filter="url(#a)" stroke="#ffd367"/>
      </g>
      <path d="m286.96 670.13s0.35714 4.4643 2.5893 4.375 2.8572-4.1964 2.8572-4.1964l0.08928-1.6071 3.8393-0.53572-0.625-9.0178s-0.17857-4.0179-5.0893-4.0179-5.8928 3.5714-5.8928 3.5714l-0.625 8.8393 2.9464 1.25-0.08928 1.3393z" fill="#775000" fill-rule="evenodd"/>
      <path transform="translate(-60.804 -1.6964)" d="m353.84 663.57a1.0268 0.84821 0 1 1 -2.0536 0 1.0268 0.84821 0 1 1 2.0536 0z" fill="#593c00"/>
      <path transform="translate(-65.045 -1.7411)" d="m353.84 663.57a1.0268 0.84821 0 1 1 -2.0536 0 1.0268 0.84821 0 1 1 2.0536 0z" fill="#593c00"/>
      <path d="m288.3 667.36 1.1607-3.3928 1.7857 3.5714" fill="none" filter="url(#eb)" stroke="#000"/>
      <path transform="matrix(.99203 .12599 -.12599 .99203 25.963 -40.321)" d="m349.82 671.38 2.6786 0.08928" fill="none" filter="url(#ea)" stroke="#000"/>
      <g transform="translate(-78.696 -15.8)">
        <path transform="matrix(.39852 0 0 .39852 199.97 435.53)" d="m405.58 618.5a5.0508 4.7982 0 1 1 -10.102 0 5.0508 4.7982 0 1 1 10.102 0z" fill="#593c00"/>
        <path d="m358.83929,681.20146 .98214.08929 .89286-.44643-1.07143-.625-.625.35714-.17857.625z" fill="none" filter="url(#a)" stroke="#ffd367"/>
      </g>
      <path d="m290.89 657.09 1.875 1.4286 1.4286-0.89286-1.6964-1.25-3.2143 0.35714 1.6071 0.35715z" fill="#f9a800" fill-rule="evenodd" filter="url(#dz)"/>
      <path d="m310.04 686.92 0.71428-34.286-33.875-4.2857" fill="none" filter="url(#dt)" stroke="#000" stroke-width="2.8"/>
      <path d="m327.73 703.44s38.133 1.2627 46.972-3.0305 22.223-21.718 22.728-22.981 12.627-21.213 15.91-23.991 32.072-19.951 32.072-19.951l5.3033 2.5254s-20.708 12.879-24.749 17.425-12.879 27.779-22.728 34.85-15.91 12.374-21.718 13.89-40.659 3.5355-40.659 3.5355l-13.132-2.2728z" fill="#131311" fill-rule="evenodd" filter="url(#bn)"/>
      <path d="m313.59 612.27 1.2627 16.668s4.5457 12.374 16.162 20.961 29.294 12.122 35.608 12.122 24.496-3.0305 35.355-6.8185 43.689-21.971 43.689-21.971 12.879-1.0102 14.647-4.2931 6.566-12.374 5.8084-14.9-5.5558-8.5863-8.8388-8.8388-4.7982-0.75761-6.0609 0.25254-9.5964 5.5558-12.122 6.566-17.93 9.3439-36.871 10.607-31.567-0.25254-32.577-0.25254-17.93-5.3033-20.456-7.0711-8.0812-5.5558-8.0812-5.5558-3.283-6.8185-5.8084-8.0812-6.566-2.7779-8.5863-2.2728-10.102 3.283-11.112 5.8084-2.0203 7.5762-2.0203 7.0711z" fill="#7f400c" fill-rule="evenodd"/>
      <path d="m439.61 620.36s4.0406-5.3033 8.0812-5.0508 7.5762 1.2627 7.8287 3.0304-0.50508 7.0711-2.7779 7.8287-3.5355 1.5152-5.8084-0.50508-3.5355-2.5254-2.2728-4.5457 3.0304-3.0304 4.5457-2.2728 2.5254 0.50508 2.2728 2.0203 0.50507 2.2728-1.2627 2.5254l-1.7678 0.25254" fill="none" filter="url(#df)" stroke="#000"/>
      <path d="m332.53 617.07s0 2.7779-4.0406 4.2932-4.5457 2.5254-7.0711-0.25254-4.7982-3.5355-4.0406-7.3236 0.50508-5.0508 3.5355-4.7982 4.5457-1.0102 5.5558 1.7678 4.0406 4.2932 1.0102 6.3134-2.2728 4.5457-4.7982 1.0102-4.7982-5.3033-2.2728-5.5558 3.5355 0 3.7881 1.2627l0.25254 1.2627" fill="none" filter="url(#dg)" stroke="#000"/>
      <path d="m379 654.45s-3.5355-9.849-3.6618-11.743-0.88388-10.102-0.88388-10.102-11.617-1.0102-23.107-5.0508-17.173-9.0914-17.173-9.0914l0.25253 4.4194s1.5152 1.7678 1.1364 3.5355-3.283 2.1466-3.283 2.1466 1.0102 2.6516 0 3.283-3.5355-0.75761-3.5355-0.75761 0 1.0102-1.389 1.389-3.6618-1.1364-3.6618-1.1364l0.63134 3.283s3.0305 9.0914 13.511 14.016 17.551 6.6923 25.38 7.1973 15.784-1.2627 15.784-1.389z" fill="#951100" fill-rule="evenodd" stroke="#a80303"/>
      <path d="m360.44 645.48 5.4296-2.0203s-0.63135-1.1364-0.88388 1.389-1.2627 6.0609 1.0102 6.1872 8.9651 0.88389 7.7024-4.7982-7.3236-7.0711-7.955-6.9448-5.8084 1.389-7.1973 1.5152-2.1466-0.75761-2.1466-0.75761 1.2627-2.0203 0.63135-4.0406-2.0203-4.7982-2.7779-5.0508-2.3991-1.1364-3.5355 0.37881-1.5152 1.7678-1.389 3.4093 0.75762 2.6516 0.8839 3.7881 1.0101 3.1567 1.0101 3.1567-1.894-4.5457-4.672-5.9346-4.672-2.3991-7.3236-1.6415-4.7982 2.0203-3.9144 5.3033 0.75761 4.1669 2.9042 4.9245 5.3033 0.88389 5.3033 0.88389l4.5457 5.0508s1.5152 0.75761 1.7678 0 0.37882-2.2728 0.37882-2.2728 1.389 4.0406 3.283 4.0406 1.2627 1.389 3.1567 0.12627 3.6618-6.566 3.7881-6.6923z" fill="#8c5000" fill-rule="evenodd"/>
      <path d="m340.61 640.05 3.5355 0.50507-2.1466-1.389-1.389 0.88389z" fill="#e0bc38" fill-rule="evenodd" filter="url(#dl)"/>
      <path d="m349.32 640.18c-0.37881-0.63134-2.7779-2.7779-4.5457-3.6618s-5.9346-2.0203-5.9346-2.0203 2.3991-0.50508 3.7881-0.12627 3.283 1.1364 3.283 1.1364l2.3991 2.0203 1.2627 1.7678-0.25255 0.88388z" fill="#e8cc48" fill-rule="evenodd" filter="url(#dm)"/>
      <path d="m353.62 646.62 1.1364 2.2728 0.88389-2.5254-2.0203 0.25254z" fill="#e0bc38" fill-rule="evenodd" filter="url(#dn)"/>
      <path d="m356.02 639.93-1.894 0.3788 2.5254 2.0203 1.2627-0.63135-1.894-1.7678z" fill="#e0bc38" fill-rule="evenodd" filter="url(#do)"/>
      <path d="m351.72 632.1 3.1567 0.50508-0.75761-1.1364-2.3991 0.63134z" fill="#e0bc38" fill-rule="evenodd" filter="url(#dp)"/>
      <path d="m366.5 644.09 2.0203 0.63134-0.63135-1.389-1.2627-0.12627-0.12626 0.88389z" fill="#e0bc38" fill-rule="evenodd" filter="url(#dq)"/>
      <path d="m349.83 640.56s-2.3991-3.5355-4.1669-4.4194-4.4194-1.894-4.4194-1.894" fill="#e0bc38" fill-rule="evenodd" filter="url(#dr)"/>
      <path d="m370.29 640.94s-0.75761-0.88389-2.5254-1.389-3.283-0.50508-3.283-0.50508" fill="#e0bc38" fill-rule="evenodd" filter="url(#ds)"/>
      <path d="m333.54 618.59 0.25253 4.5457-5.3033 0.50508 4.7982 1.0102" fill="none" filter="url(#dh)" stroke="#000"/>
      <path d="m333.04 629.19-5.5558-4.2931" fill="none" filter="url(#di)" stroke="#000"/>
      <path d="m329 631.72-3.283-5.5558" fill="none" filter="url(#dj)" stroke="#000"/>
      <path d="m324.2 631.97c0-1.0102-1.7678-4.2931-1.7678-4.2931" fill="none" filter="url(#dk)" stroke="#000"/>
      <path d="m379.12 633.11s0 7.5761 1.2627 11.617 2.7779 9.5964 2.7779 9.5964 8.3338-2.1466 10.102-2.6516 6.1872-2.5254 6.1872-2.5254l-5.177-16.541s-5.3033 0.75761-7.7024 1.0102-7.5761-0.37881-7.4499-0.50507z" fill="#951100" fill-rule="evenodd"/>
      <path d="m399.07 631.97 16.92-4.0406 4.5457 12.374-16.794 7.5762s-3.0305-5.3033-3.6618-7.8287-0.63134-8.3338-1.0102-8.0812z" fill="#951100" fill-rule="evenodd"/>
      <path d="m421.05 626.54 17.678-6.0609s3.1567 1.389 3.283 2.3991-0.37881 4.5457-0.37881 4.5457-15.784 10.354-17.678 10.859-3.1567-11.364-2.9042-11.743z" fill="#951100" fill-rule="evenodd"/>
      <path d="m336.25 613.43s10.536 9.6429 25.893 11.786 23.75 1.7857 27.857 1.4286 26.429-4.8214 26.429-4.8214l23.75-8.9286 5.3572-2.3214" fill="none" filter="url(#de)" stroke="#f0be04"/>
      <path d="m248.44 596.36-7.8287 2.7779 11.364 19.951s11.112-3.5355 9.849-4.7982-13.132-17.678-13.385-17.93z" fill="#ae7c3d" fill-rule="evenodd"/>
      <path d="m262.58 614.8 29.547 6.566s16.162 1.2627 17.173 1.2627 4.7982-2.0203 4.7982-2.0203l-0.50508 5.5558s-12.627 0.50507-22.476-0.50508-38.638-6.8185-38.638-6.8185l10.102-4.0406z" fill="#c08741" fill-rule="evenodd"/>
      <path d="m240.1 560.5 44.908-15.448-36.827-4.5943 0.75761 8.4257-19.803 6.8618-26.856-5.39 11.303-6.0176-0.93618-7.6068-22.746 6.1655 2.7219 1.9463-3.0305 2.0203-1.903 0.11729-5.969-2.4947s-5.5558-3.5355-6.566-5.0508-2.7721-7.5845-9.2879-8.0072c-5.4528-0.35379-8.7036 6.3008-8.7036 6.3008s6.4181-3.4922 7.9333-2.7346 7.5022 8.7955 7.5022 8.7955l17.476 9.3999 13.826 3.8608 27.361 3.9552 8.8388-0.50508z" fill="#c78f40" fill-rule="evenodd"/>
      <path d="m150.83 562.9 6.9448 0.88389" fill="#ffd203" fill-rule="evenodd" filter="url(#da)" stroke="#f6d208"/>
      <path d="m142.5 535.88s0.75761-2.2728 2.3991-1.7678 7.3236 6.3134 7.3236 6.3134" fill="#ffd203" fill-rule="evenodd" filter="url(#dd)" stroke="#f6d208"/>
      <path d="m147.93 547.63s1.5152-0.12627 1.894 0.3788l0.37881 0.50508" fill="#ffd203" fill-rule="evenodd" filter="url(#db)" stroke="#f6d208"/>
      <path d="m155.75 548.64 1.1364-1.2627" fill="#ffd203" fill-rule="evenodd" filter="url(#dc)" stroke="#f6d208"/>
      <path d="m158.66 574.9-6.0609-1.1364-1.0102 1.2627-2.5254 1.2627 6.1872 0.50508 4.2932-0.50508-0.88388-1.389z" fill="#ffd203" fill-rule="evenodd" filter="url(#cz)" stroke="#f6d208"/>
      <path d="m152.09 585.38s0.75761 2.6516 1.389 2.6516 2.6516-1.7678 2.1466-4.4194-4.9245-2.2728-4.9245-2.2728-2.3991 1.2627-1.6415 4.1669 1.7678 4.5457 3.283 5.3033 2.1466 2.2728 3.5355 1.2627 2.5254-4.5457 2.5254-4.5457" fill="none" filter="url(#cj)" stroke="#000"/>
      <path d="m164.09 545.35s4.1669 0.63135 3.5355 5.177-3.6618 3.1567-3.6618 3.1567-3.0305-2.9042-2.7779-5.177 2.9042-3.0305 2.9042-3.1567z" fill="none" filter="url(#ck)" stroke="#000"/>
      <path d="m163.33 573.76s3.283 3.4093 1.1364 3.5355-1.894 0.25254-2.9042-1.389-1.0102-4.9245 0.25253-5.0508 3.6618 0.88389 4.2932 2.7779 0.63135 5.0508 0.63135 5.0508" fill="none" filter="url(#ci)" stroke="#000"/>
      <path d="m161.31 594.34-1.1364-16.289s1.894 2.7779 3.4093 2.7779 4.672-2.2728 4.672-2.2728l16.162 8.5863 4.5457 20.456-27.653-13.258z" fill="#781a18" fill-rule="evenodd"/>
      <path d="m185.55 596.87s-1.389 3.4093-2.7779 3.0305-5.3033-10.228-5.3033-10.228-1.0102-4.2932-3.0305-5.0508-4.4194-2.6516-5.5558-1.0102-1.894 4.1669-1.7678 5.4296 0.3788 2.6516 1.7678 4.5457 0.75761 2.1466 3.1567 3.6618 1.6415 1.6415 3.9144 2.6516-0.25255 0.63135 3.9143 2.1466 1.1364 0.50508 4.2932 1.894 3.283-2.5254 3.283-2.5254l-1.894-4.5457z" fill="#5d2a11" fill-rule="evenodd"/>
      <path d="m171.16 583.23s3.1567 1.2627 4.0406 2.0203 2.5254 4.7982 2.5254 4.7982" fill="none" filter="url(#cm)" stroke="#fad011"/>
      <path d="m180.38 597.5s0 1.2627 0.75761 1.5152l0.75761 0.25254" fill="none" filter="url(#cn)" stroke="#fad011"/>
      <path d="m191.49 584.12-22.223-11.743s-3.0305-5.4296-5.9346-5.8084-4.2932 2.1466-4.2932 2.1466" fill="none" filter="url(#cl)" stroke="#b29303"/>
      <path d="m187.7 578.69s-2.6517-4.4194-3.6618-4.672-7.0711-3.283-7.0711-3.283l-1.2627-3.283-1.389 1.7678s-2.5254 2.3991-4.9245 0.50507-4.1669-4.2932-3.9143-5.6821 0.25253-5.3033 0.88388-5.6821 2.6516-1.7678 3.4092-1.2627 1.6415 1.0102 2.2728 0.3788 0.50508-1.2627 1.2627-1.2627 12.122 11.364 12.122 11.364 2.5254 5.0508 3.1567 6.9448-0.50508 4.5457-0.88388 4.1669z" fill="#5d2a11" fill-rule="evenodd"/>
      <path d="m189.34 576.41c0-1.0102 0.12626-5.4296 0.88387-5.9346s2.6517-1.1364 2.6517-1.1364-4.672-4.1669-4.672-5.0508 0-2.6516-1.1364-3.7881-4.7982-4.5457-4.7982-4.5457l6.3135 1.894 2.5254 0.25254 6.566 2.6516 5.0508-0.12627 1.389 3.5355 3.283-0.3788 0.63135 1.0102 1.2627-0.88388 1.6415 0.75761 3.283-1.2627 2.0203 4.0406-0.12628 8.2075 2.0203 0.12627 0.75761-4.4194 1.389 0.12627 0.63135 2.0203 2.5254-2.3991 4.1669 3.0305s-1.389-0.37881-1.894 2.0203 4.2932 5.0508 2.3991 8.5863-2.3991 3.7881-5.5558 3.6618-28.537-3.0305-28.537-3.0305-0.25255-2.7779-1.6415-4.5457-1.894-1.389-2.3991-2.7779-0.75762-1.5152-0.63135-1.6415z" fill="#5d2a11" fill-rule="evenodd"/>
      <g transform="translate(-61.429 -1.4286)">
        <path transform="matrix(.78431 0 0 .86667 55.464 77.568)" d="m261.25 590.28a3.2199 2.841 0 1 1 -6.4397 0 3.2199 2.841 0 1 1 6.4397 0z" fill="#7f400c"/>
        <path d="m256.83 587.19 1.389 1.894 2.1466-0.25254-1.5152-1.6415h-2.0203z" fill="#e8d04c" fill-rule="evenodd" filter="url(#b)"/>
      </g>
      <g transform="translate(-54.736 -.7341)">
        <path transform="matrix(.78431 0 0 .86667 55.464 77.568)" d="m261.25 590.28a3.2199 2.841 0 1 1 -6.4397 0 3.2199 2.841 0 1 1 6.4397 0z" fill="#7f400c"/>
        <path d="m256.83 587.19 1.389 1.894 2.1466-0.25254-1.5152-1.6415h-2.0203z" fill="#e8d04c" fill-rule="evenodd" filter="url(#b)"/>
      </g>
      <g transform="translate(-48.17 .40232)">
        <path transform="matrix(.78431 0 0 .86667 55.464 77.568)" d="m261.25 590.28a3.2199 2.841 0 1 1 -6.4397 0 3.2199 2.841 0 1 1 6.4397 0z" fill="#7f400c"/>
        <path d="m256.83 587.19 1.389 1.894 2.1466-0.25254-1.5152-1.6415h-2.0203z" fill="#e8d04c" fill-rule="evenodd" filter="url(#b)"/>
      </g>
      <g transform="translate(-41.478 1.4125)">
        <path transform="matrix(.78431 0 0 .86667 55.464 77.568)" d="m261.25 590.28a3.2199 2.841 0 1 1 -6.4397 0 3.2199 2.841 0 1 1 6.4397 0z" fill="#7f400c"/>
        <path d="m256.83 587.19 1.389 1.894 2.1466-0.25254-1.5152-1.6415h-2.0203z" fill="#e8d04c" fill-rule="evenodd" filter="url(#b)"/>
      </g>
      <g transform="matrix(1.225 0 0 1.3077 -93.116 -178.6)">
        <path transform="matrix(.78431 0 0 .86667 55.464 77.568)" d="m261.25 590.28a3.2199 2.841 0 1 1 -6.4397 0 3.2199 2.841 0 1 1 6.4397 0z" fill="#7f400c"/>
        <path d="m256.83 587.19 1.389 1.894 2.1466-0.25254-1.5152-1.6415h-2.0203z" fill="#e8d04c" fill-rule="evenodd" filter="url(#b)"/>
      </g>
      <path d="m184.67 566.06-9.849-8.7126" fill="none" filter="url(#cq)" stroke="#fee70d"/>
      <path d="m171.03 560.25-1.7678-1.2627" fill="none" filter="url(#cp)" stroke="#fee70d"/>
      <path d="m171.29 567.2-1.894-0.63134-1.0102-1.7678" fill="none" filter="url(#co)" stroke="#fee70d"/>
      <path d="m192.12 560.88-6.1872-3.1567" fill="#e8cc48" fill-rule="evenodd" filter="url(#cr)" stroke="#fdd80e"/>
      <path d="m195.66 560.25c-0.75761-0.25254-4.5457-2.0203-4.5457-2.0203" fill="#e8cc48" fill-rule="evenodd" filter="url(#cs)" stroke="#fdd80e"/>
      <path d="m203.36 562.78-1.7678-1.5152-2.1466 0.3788" fill="#e8cc48" fill-rule="evenodd" filter="url(#ct)" stroke="#fdd80e"/>
      <path d="m203.99 567.83-0.63133 0.75761-2.3991-1.1364 3.0305 0.37881z" fill="#e8cc48" fill-rule="evenodd" filter="url(#cu)" stroke="#fdd80e"/>
      <path d="m206.01 564.92 1.1364 0.37881" fill="#e8cc48" fill-rule="evenodd" filter="url(#cv)" stroke="#fdd80e"/>
      <path d="m209.42 565.56 1.5152 0.37881" fill="#e8cc48" fill-rule="evenodd" filter="url(#cw)" stroke="#fdd80e"/>
      <path d="m212.83 564.29 1.2627 0.75762" fill="#e8cc48" fill-rule="evenodd" filter="url(#cx)" stroke="#fdd80e"/>
      <path d="m209.8 575.4c0.63135 0.25254 1.894 1.894 1.894 1.894" fill="#e8cc48" fill-rule="evenodd" filter="url(#cy)" stroke="#fdd80e"/>
      <path d="m222.93 565.05s2.3991-2.3991 4.2932-2.1466 3.5355 2.6516 3.4093 4.0406-0.75762 3.4093-2.1466 3.4093-3.9143-1.389-3.6618-2.3991 0.75761-1.6415 1.389-1.6415 2.1466 0.88388 2.1466 0.88388" fill="none" filter="url(#ch)" stroke="#000"/>
      <path d="m228.86 574.14s2.1466-1.389 2.9042-2.7779 0.75761-2.7779 0.75761-2.7779" fill="none" filter="url(#cg)" stroke="#000"/>
      <g transform="translate(-67.484 -.88908)">
        <path transform="matrix(.78431 0 0 .86667 55.464 77.568)" d="m261.25 590.28a3.2199 2.841 0 1 1 -6.4397 0 3.2199 2.841 0 1 1 6.4397 0z" fill="#7f400c"/>
        <path d="m256.83 587.19 1.389 1.894 2.1466-0.25254-1.5152-1.6415h-2.0203z" fill="#e8d04c" fill-rule="evenodd" filter="url(#b)"/>
      </g>
      <path d="m191.07 598.08 13.75-3.9286 15 6.25 1.9643 24.643s-3.75 5-12.679 5.3572-13.393-7.8572-13.393-7.8572l-4.6428-24.464z" fill="#1a2402" fill-rule="evenodd" stroke="#000" stroke-width=".4"/>
      <path d="m202.22 611.14-2.2728-5.5558s-0.69449-4.9876 4.3563-5.0508 6.3766 4.7351 6.3766 4.7351l1.0102 6.4397-1.8309 1.0102-0.50506 0.94702v3.0936s-0.56822 1.0102-2.2097 0.88388-2.2728-1.0733-2.2728-1.0733l-0.06313-3.9143-0.63134-0.18941-1.9572-1.3258z" fill="#7e5831" fill-rule="evenodd" filter="url(#d)" stroke="#000" stroke-width=".1"/>
      <path d="m202.41 615.18s2.5885-0.63135 4.5457-0.63135 5.6821 1.0102 5.6821 1.0102 1.1364-0.56821 1.894-0.31567 2.7779 0.63135 2.7148 1.4521-0.88389 1.8309-1.389 1.6415l-0.82074-0.31567s1.389 2.3991 1.1996 2.9042-0.12628 1.894-1.3258 1.1364-2.3991-0.94702-2.4622-2.2097 0.63134-1.389-0.12627-2.2728-1.5784-1.389-1.5784-1.389-3.0936-0.50508-3.9143-0.56821-4.0406 0.94702-4.0406 0.94702 1.1995 3.0304 0.82074 3.4093-1.389 1.389-2.1466 1.0733-1.3258-0.06314-1.389-1.0102 0.18939-3.0305-0.1894-3.0305-2.2728-0.94702-1.9572-1.7678 1.7678-0.94702 2.2728-0.94702 2.336 1.0102 2.2097 0.88389z" fill="#7e5831" fill-rule="evenodd" filter="url(#d)" stroke="#000" stroke-width=".1"/>
      <path d="m199.44 605.39s-1.7678-0.82074-2.0834-0.31567 0.63135 2.2097 0.69448 2.9042 0.18941 1.0733 0.18941 1.0733-1.7046-0.56821-1.7046 0.06313 0.50507 4.1669 1.5784 4.1669 2.5885 1.0102 2.9673 0.12627 0.37881-1.9572 0.37881-1.9572l0.3788-0.44194" fill="#7e5831" fill-rule="evenodd" filter="url(#d)" stroke="#000" stroke-width=".1"/>
      <path d="m211.38 606.15s1.4521-1.2627 2.0834-0.88388 1.0102 4.4194 1.0102 4.4194 1.389 0.06314 1.7046 1.1996 0.82074 2.841-0.75763 2.9042-1.7046 0.56821-2.5254-0.44194-1.2627-2.0203-1.2627-2.0203l-0.63133-5.0508 0.3788-0.12627z" fill="#7e5831" fill-rule="evenodd" filter="url(#d)" stroke="#000" stroke-width=".1"/>
      <path d="m203.29 604.51s1.2627 0.1894 1.389 1.0102 0.25255 2.5885 0.25255 2.5885-0.25255 1.0102-0.94703 1.0733-1.3258-0.88389-1.3258-0.88389l-0.56821-2.7148s0.25252-0.63135 0.50506-0.82075 0.63135-0.1894 0.69448-0.25254z" fill="#32312e" fill-rule="evenodd" filter="url(#cd)"/>
      <path d="m207.78 604.7s0.75763-0.06313 1.1364 0.69448 0.3788 2.9042 0.3788 2.9042-0.25254 0.82075-0.82076 0.82075-1.389-0.63134-1.389-0.63134l-0.25252-2.9042s-0.12628-0.88389 0.31567-0.88389h0.63133z" fill="#32312e" fill-rule="evenodd" filter="url(#ce)"/>
      <path d="m206.26185,609.81262c0,0-.82074.50508-.56821.82075s.50508.69448.88389.56821 .56821-.12627.56821-.44194-.82076-1.07329-.88389-.94702z" fill="#32312e" fill-rule="evenodd" filter="url(#cf)"/>
      <path d="m224.82 603.61-0.35715 14.286s1.4286 3.3928 4.1072 3.0357 6.9643-5.7143 6.9643-5.7143 0 3.75 2.3214 3.9286 4.2857-1.6072 4.2857-3.3929 0-3.3929-1.0714-4.4643-4.4643-2.8571-5.7143-2.1428-6.0714 6.0714-6.0714 6.0714l-3.3929-4.6429 0.71427-1.0714 2.1429 1.7857 1.0714-0.53571s1.6071-5 0-5.8929-5.1786-1.25-5-1.25z" fill="#5a2207" fill-rule="evenodd"/>
      <path d="m241.43 623.26c0.71429 1.25 0.71429 6.25 2.6786 6.6071s6.0714-2.5 6.9643-1.0714-1.25 3.0357 2.3214 3.2143 4.1071-0.89286 4.1071-3.5714 0.17857-3.2143-1.9643-3.9286-4.2857-1.0714-5.8929-0.35714-3.2143 1.7857-3.2143 1.7857l-3.2143-4.2857h-1.6072l-0.17856 1.6071z" fill="#5a2207" fill-rule="evenodd"/>
      <path d="m260.89 628.79 13.036-1.0714 5.3572 0.17857 1.9643 3.3928 2.1429-2.8571 8.75 2.6786 8.5714 3.5714s3.0357 1.7857 2.1429 5.7143 0 4.2857-3.5714 2.8571-5.5357-6.0714-6.25-2.3214 1.0714 7.3214-2.3214 5.1786-3.2143-7.6786-4.6429-5.5357-1.7857 5.5357-3.75 4.4643-1.6071-5-3.5714-4.6428-4.8214 4.1071-6.7857 2.8571 0.17857-5.5357-2.1429-5.1786-7.8571-0.35714-7.8571-0.35714-2.3214-1.9643-2.3214-3.75v-3.3929l1.25-1.7857z" fill="#5a2207" fill-rule="evenodd"/>
      <path d="m322.5 643.08s-1.4286 1.6071-4.4643-0.17857-5.1786-3.9286-5.1786-3.9286 2.5 3.3928 0.89284 3.9286-5.5357 0.53571-7.3214-2.6786-1.4286-5.3572 0.17859-6.25 4.2857-1.4286 5.3571-0.53572 2.8571 4.2857 4.4643 5 3.5714 1.0714 3.5714 1.0714l2.5 3.5714z" fill="#5a2207" fill-rule="evenodd"/>
      <path d="m325.18 605.04 2.8572 1.4286" fill="none" filter="url(#bo)" stroke="#f0be04"/>
      <path d="m229.29 606.47-1.9643-1.0714" fill="none" filter="url(#bp)" stroke="#f0be04"/>
      <path d="m227.14 614.51 1.6071 1.7857" fill="none" filter="url(#bq)" stroke="#f0be04"/>
      <path d="m237.86 609.68 2.1429 1.25" fill="none" filter="url(#br)" stroke="#f0be04"/>
      <path d="m244.46 625.58 1.9643 1.25" fill="none" filter="url(#bs)" stroke="#f0be04"/>
      <path d="m254.11 624.51 2.6786 1.25" fill="none" filter="url(#bt)" stroke="#f0be04"/>
      <path d="m265.54 633.26 3.0357 0.71429" fill="none" filter="url(#bu)" stroke="#f0be04"/>
      <path d="m273.04 636.65 4.4643 2.1428" fill="none" filter="url(#bv)" stroke="#f0be04"/>
      <path d="m291.25 639.51c-0.71428 0-5.7143 0.17857-5.7143 0.17857" fill="none" filter="url(#bw)" stroke="#f0be04"/>
      <path d="m266.07 628.61s3.75 0.71429 4.8214 1.25 5.3571 4.2857 5.3571 4.2857" fill="none" filter="url(#bx)" stroke="#f0be04"/>
      <path d="m285.18 634.51 6.25-1.9643 6.7857 0.89286" fill="none" filter="url(#by)" stroke="#f0be04"/>
      <path d="m283.39 628.43 7.6786 2.3214" fill="none" filter="url(#bz)" stroke="#f0be04"/>
      <path d="m279.11 628.08-6.6072 0.71429" fill="none" filter="url(#ca)" stroke="#f0be04"/>
      <path d="m310 633.61 1.6072-0.17857 4.2857 4.1071" fill="none" filter="url(#cb)" stroke="#f0be04"/>
      <path transform="matrix(.040245 .99919 -.99919 .040245 942.73 233.95)" d="m378.93 640.4 2.3924-1.7412" fill="none" filter="url(#cc)" stroke="#f0be04"/>
      <path d="m240.36 598.08-9.8214-37.321h9.2857l8.75 35.179-8.2143 2.1429z" fill="#8d5928" fill-rule="evenodd"/>
      <path d="m440.62 644.09c0.25254-1.2627 18.183-13.132 18.183-13.132s1.2627 5.8084 3.283 6.3134 6.0609 1.2627 6.0609 1.2627 1.2627 4.0406 3.0305 4.2931 3.5355 3.7881 3.5355 3.7881l-16.162 0.50507s-3.0304 0.75762-5.0508 0.75762-4.7982-2.2728-4.7982-2.2728l-8.0812-1.5152z" fill="#12130d" fill-rule="evenodd"/>
      <path d="m458.75 631.32s5.3519-4.6503 8.3824-5.913 7.3236-1.5152 8.3338-1.5152 3.7881 0.50508 3.7881 0.50508l2.5254 3.5355-2.2728 2.7779 2.7779 4.2932-0.50508 1.5152 5.0508 3.7881-0.25254 2.7779-11.853 3.5955-14.473-9.9216" fill="#773723" fill-rule="evenodd"/>
      <path d="m478.75 627.68s-2.0203-1.0102-5.0508-1.0102-8.3338 3.0305-8.3338 3.0305" fill="#a07941" fill-rule="evenodd" filter="url(#bf)" stroke="#c59000"/>
      <path d="m494.66 641.57-7.5762 0.50508 0.50509-2.2728-5.8084-3.5355 1.2627-1.0102-4.2931-4.5457 3.0304-3.0304-2.2728-3.283 4.7982-1.5152v-1.0102h0.75762l-1.0101-2.7779 2.0203-2.2728-1.0102-2.5254h3.283l2.0203 0.75762 3.7881 0.50508 2.0203 1.0102 6.566 13.89-2.2728 0.50507-2.7779-4.5457s-2.7779-0.25253-4.5457 0.50508-2.7779 4.0406-2.7779 4.0406l4.7982 2.7779-0.75761 3.283v2.0203l-0.75763 0.50508 1.0102 2.0203z" fill="#dbdb00" fill-rule="evenodd"/>
      <path d="m493.65 636.52-12.374-4.0406" fill="none" filter="url(#bi)" stroke="#000"/>
      <path d="m496.68 625.15c-1.0102 0-12.627-5.0508-12.627-5.0508" fill="none" filter="url(#bl)" stroke="#000"/>
      <path d="m489.86 629.45-7.8287-2.2728" fill="none" filter="url(#bj)" stroke="#000"/>
      <path d="m492.64 626.67-6.3134-3.5355" fill="none" filter="url(#bk)" stroke="#000"/>
      <path d="m493.9 638.79-4.2931 0.75762" fill="none" filter="url(#bh)" stroke="#000"/>
      <path d="m494.66 640.81-0.25253-7.3236-3.5356-2.0203s-0.75761-3.283 0.50508-4.0406 6.0609-1.2627 6.0609-1.2627l2.5254 4.5457 2.7779-0.25253 9.0914-1.0102-3.0305 4.0406s4.2932 4.7982 1.0102 6.8185-6.3134-2.0203-6.3134-2.0203-1.7678 1.0102-4.0406 2.0203-5.0508 0.75762-4.7982 0.50508z" fill="#602d24" fill-rule="evenodd"/>
      <path d="m504.76 633.49c-1.2627 1.0102-0.25255 1.0102 0 0z" fill="none" stroke="#000"/>
      <path d="m498.2 628.69s-1.0101-1.7678-3.0304-1.5152-2.5254 1.0102-2.5254 1.0102" fill="#a07941" fill-rule="evenodd" filter="url(#bg)" stroke="#c59000"/>
      <path d="m462.34 607.98 6.566-5.5558 13.89-1.7678 9.3439-5.8084 1.7678 1.5152 8.3338-1.0102 4.7982-2.5254 1.7678 1.5152 10.607-1.7678 7.8287 1.5152-1.7678 6.0609-24.496 10.102-0.75761 4.2932h-15.657l-23.486 12.879" fill="#6e4525" fill-rule="evenodd"/>
      <path d="m464.36 608.99 17.173-4.5457 2.5254-2.7779 13.637-0.75762 3.7881-0.50507 6.0609-0.50508 6.8185-3.5355 7.0711 2.0203-2.5254 4.5457-17.173 6.3134-1.7678 5.0508h-14.142l-22.981 12.122" fill="#261714" fill-rule="evenodd"/>
      <path d="m496.18 620.36-9.3439-3.5355" fill="none" filter="url(#bm)" stroke="#000"/>
      <path d="m471.43 618.08 10.102-5.5558" fill="none" filter="url(#ba)" stroke="#000"/>
      <path d="m470.67 612.78 10.102-4.2932" fill="none" filter="url(#bc)" stroke="#000"/>
      <path d="m468.4 609.24 10.859-2.5254" fill="none" filter="url(#bb)" stroke="#000"/>
      <path d="m505.52 605.71c1.0102-0.50508 12.122-5.3033 12.122-5.3033" fill="none" filter="url(#ay)" stroke="#000"/>
      <path d="m502.74 602.17 10.102-4.0406" fill="none" filter="url(#az)" stroke="#000"/>
      <path d="m502.49 598.64 5.0508-3.7881" fill="none" filter="url(#be)" stroke="#4a4a4a"/>
      <path d="m486.58 601.16 6.3134-4.7982" fill="none" filter="url(#bd)" stroke="#4a4a4a"/>
      <path d="m516.38 604.95v3.5355l6.566 3.5355-2.0203 7.8287 3.5355 4.2932-3.283 5.3033-4.5457 1.2627-2.7779-2.7779-10.859 1.7678-8.3338-14.647 5.0508-0.25254 2.0203-5.0508 14.647-4.7982z" fill="#25100b" fill-rule="evenodd"/>
      <path d="m514.11 626.16c1.2627 0 6.0609 0.75761 6.0609 0.75761l1.5152-3.0305-3.5355-3.5355-4.0406 5.8084z" fill="#43220f" fill-rule="evenodd"/>
      <path d="m509.56 617.33-3.5356-5.8084" fill="none" filter="url(#aw)" stroke="#8d5905"/>
      <path d="m501.48 621.87c0-1.0102-3.0304-5.0508-3.0304-5.0508" fill="none" filter="url(#ax)" stroke="#8d5905"/>
      <path d="m410.06 593.84-7.3236 17.93 20.203-0.75761 4.0406-3.5355 13.385 3.0305 10.102-3.7881 1.7678-1.5152 3.283-0.75761v-2.5254" fill="#874c08" fill-rule="evenodd" filter="url(#c)"/>
      <path d="m468.9 594.34s-30.052 0.25254-40.659-1.2627l-10.607-1.5152-7.5762 2.5254s16.668 5.3033 18.688 5.5558 26.517 2.5254 27.779 2.0203 12.627-7.0711 12.374-7.3236z" fill="#c08d4b" fill-rule="evenodd" filter="url(#av)"/>
      <path d="m400.24 610.09s-12.4 2.1862-15.178 7.237 1.5459 6.4487 1.5459 6.4487l19.772-0.32651s20.604-5.3646 22.876-6.6273 22.035-10.094 22.035-10.094l-25.484-0.14269-3.6095 3.1478-21.958 0.35714z" fill="#b07f3b" fill-rule="evenodd" filter="url(#c)"/>
      <path d="m375.97 575.91 3.0305 2.0203 6.8185 37.881s7.3236-3.5355 9.0914-4.0406 11.117-1.7244 11.117-1.7244l6.1782-15.06-11.487-4.9335-8.5863-5.0508-6.0609-9.849-10.102 0.75762z" fill="#5f2809" fill-rule="evenodd" filter="url(#c)"/>
      <path d="m345.5 614.76c0-1.2627 10.267-28.493 10.267-28.493l14.9-5.5558 6.3134-4.2932 3.0178 1.8724 7.6068 37.955s-3.3876 2.5994-2.8825 3.6095 2.1249 3.5355 2.1249 3.5355-13.42 0.43111-23.269-2.3468-18.078-6.2828-18.078-6.2828z" fill="#864f13" fill-rule="evenodd" filter="url(#c)"/>
      <path d="m418.14 591.31s-13.637-5.5558-15.405-6.8185-6.8185-4.5457-6.8185-4.5457-1.5152-6.566-4.7982-8.3338-9.3439-0.25254-9.3439-0.25254l-5.5125 5.2906s6.7139-1.2627 8.4817-0.50507 6.0609 8.9561 6.0609 8.9561l8.7342 5.913 9.5225 3.7881 10.089-3.9973-1.0101 0.50507z" fill="#845527" fill-rule="evenodd" filter="url(#c)"/>
      <path d="m454.59 601.74 0.86223 3.1351 13.951-6.7446v-3.283l-14.813 6.8925z" fill="#552f17" fill-rule="evenodd"/>
      <path d="m455.29 604.56 14.117-6.1782 0.50508 1.2627-9.0607 7.3849-5.5611-2.4694z" fill="#c08d4b" fill-rule="evenodd"/>
      <path d="m460.61 607.18 1.5892 1.4413 7.4589-6.1962-1.2627-1.7678-7.7854 6.5227z" fill="#552f17" fill-rule="evenodd"/>
      <path d="m347.28 614.18 8.5123-26.443s10.828-4.7549 13.606-6.0176 6.8185-4.7982 6.8185-4.7982l-8.0252-2.2295-1.3673 1.7371s-4.4538 2.7473-10.01 2.7473-8.7596-0.2219-9.2647-1.2321-2.6479-1.2754-2.6479-1.2754-1.2627-0.50507-2.2728 2.0203-1.0102 4.0406-1.0102 4.0406l-10.607 4.2932 0.17857 12.941s4.7063 1.9897 5.7165 3.5049 3.283 6.3261 4.5457 6.8312 6.8671 5.9922 5.8263 3.88z" fill="#60270d" fill-rule="evenodd"/>
      <path d="m354 587.27-20.708-0.25253" fill="none" filter="url(#au)" stroke="#656565"/>
      <path d="m132.68 530.58 3.3929 0.53571v1.25l24.643 0.89286s3.75-2.8571 7.1428-1.6071 6.25 6.6071 6.25 6.6071 2.1429 3.3929 5.1786 5.1786 8.9286 4.1071 8.9286 4.1071l4.6428-2.8571-10.179-5.7143-6.9643-8.0357-3.2143-1.9643-34.286-3.2143-5.5357 3.0357v1.7857z" fill="#411f07" fill-rule="evenodd"/>
      <path d="m137.86 529.51 24.107 0.17857s5.8928 0 7.6786 1.4286 5.7143 6.6072 5.7143 6.6072" fill="none" filter="url(#at)" stroke="#5b5b5b"/>
      <path d="m135.18 526.65v1.4286s2.6786 0.53571 3.75 0.53571 4.8214-1.0714 4.8214-1.0714l-0.35715-1.9643s-2.3214 0.53571-3.75 0.71428-4.1071 0.17858-4.4643 0.35715z" fill="#241312" fill-rule="evenodd"/>
      <path d="m135.71 523.97v1.7857l4.2857 0.35714 1.6071-0.35714 0.53572-0.35714-0.17856-1.9643-6.25 0.53572z" fill="#241312" fill-rule="evenodd"/>
      <path d="m136.43 523.43s-1.4286-4.6429-1.4286-5.8929 0.53572-6.9643 0.53572-6.9643l-1.6072-0.71429-0.17856-1.4286 6.7857-0.17857v1.0714l-0.89287 0.53571s0.71428 3.5714 0.89287 5.1786 0.17857 8.0357 0.17857 8.0357l-4.2857 0.35714z" fill="#241312" fill-rule="evenodd"/>
      <path d="m150.18 526.65v1.4286s2.6786 0.53571 3.75 0.53571 4.8214-1.0714 4.8214-1.0714l-0.35715-1.9643s-2.3214 0.53571-3.75 0.71428-4.1071 0.17858-4.4643 0.35715z" fill="#241312" fill-rule="evenodd"/>
      <path d="m150.71 523.97v1.7857l4.2857 0.35714 1.6071-0.35714 0.53572-0.35714-0.17856-1.9643-6.25 0.53572z" fill="#241312" fill-rule="evenodd"/>
      <path d="m151.43 523.43s-1.4286-4.6429-1.4286-5.8929 0.53572-6.9643 0.53572-6.9643l-1.6072-0.71429-0.17856-1.4286 6.7857-0.17857v1.0714l-0.89287 0.53571s0.71428 3.5714 0.89287 5.1786 0.17857 8.0357 0.17857 8.0357l-4.2857 0.35714z" fill="#241312" fill-rule="evenodd"/>
      <path d="m163.57 527.01v1.4286s2.6786 0.53571 3.75 0.53571 4.8214-1.0714 4.8214-1.0714l-0.35713-1.9643s-2.3214 0.53571-3.75 0.71428-4.1072 0.17858-4.4643 0.35715z" fill="#241312" fill-rule="evenodd"/>
      <path d="m164.11 524.33v1.7857l4.2857 0.35714 1.6072-0.35714 0.53572-0.35714-0.17857-1.9643-6.25 0.53572z" fill="#241312" fill-rule="evenodd"/>
      <path d="m164.82 523.79s-1.4286-4.6429-1.4286-5.8929 0.53572-6.9643 0.53572-6.9643l-1.6071-0.71429-0.17858-1.4286 6.7857-0.17857v1.0714l-0.89285 0.53571s0.71428 3.5714 0.89285 5.1786 0.17858 8.0357 0.17858 8.0357l-4.2857 0.35714z" fill="#241312" fill-rule="evenodd"/>
      <path d="m181.07 540.76v1.4286s2.6786 0.53571 3.75 0.53571 4.8214-1.0714 4.8214-1.0714l-0.35713-1.9643s-2.3214 0.53571-3.75 0.71428-4.1072 0.17858-4.4643 0.35715z" fill="#241312" fill-rule="evenodd"/>
      <path d="m181.61 538.08v1.7857l4.2857 0.35714 1.6072-0.35714 0.53572-0.35714-0.17857-1.9643-6.25 0.53572z" fill="#241312" fill-rule="evenodd"/>
      <path d="m182.32 537.54s-1.4286-4.6429-1.4286-5.8929 0.53572-8.75 0.53572-8.75l-1.6071-0.71429-0.17858-1.4286 6.7857-0.17857v1.0714l-0.89285 0.53571s0.71428 5.3571 0.89285 6.9643 0.17858 8.0357 0.17858 8.0357l-4.2857 0.35714z" fill="#241312" fill-rule="evenodd"/>
      <path d="m132.14 508.79 36.607 0.35715s2.3214 6.4286 4.8214 8.2143 6.25 2.5 6.25 2.5 13.393 2.6786 13.75 1.6072 3.9286-3.75-0.7143-4.8214-7.1428-0.89286-7.1428-0.89286-5.1786-0.53571-6.4286-1.6071-3.0357-7.1429-5.7143-7.8572-17.5-1.4286-17.5-1.4286l-23.571 0.53572s-2.5 1.0714-2.3214 2.1428 2.1429 1.4286 1.9643 1.25z" fill="#5a3219" fill-rule="evenodd"/>
      <path transform="translate(-61.429 -1.4286)" d="m201.61 504.95a3.8393 3.4821 0 1 1 -7.6786 0 3.8393 3.4821 0 1 1 7.6786 0z" fill="#241312"/>
      <path d="m135.71 500.58 1.7857 1.9643h2.1428l-1.25-1.6071-2.6786-0.35714z" fill="#e8cc4c" fill-rule="evenodd" filter="url(#e)"/>
      <path transform="translate(-32.054 -.98215)" d="m201.61 504.95a3.8393 3.4821 0 1 1 -7.6786 0 3.8393 3.4821 0 1 1 7.6786 0z" fill="#241312"/>
      <path d="m165.09 501.02 1.7857 1.9643h2.1429l-1.25-1.6071-2.6786-0.35714z" fill="#e8cc4c" fill-rule="evenodd" filter="url(#e)"/>
      <path transform="translate(-15.089 9.0178)" d="m201.61 504.95a3.8393 3.4821 0 1 1 -7.6786 0 3.8393 3.4821 0 1 1 7.6786 0z" fill="#241312"/>
      <path d="m182.05 511.02 1.7857 1.9643h2.1429l-1.25-1.6071-2.6786-0.35714z" fill="#e8cc4c" fill-rule="evenodd" filter="url(#e)"/>
      <path d="m147.68 505.4 1.4286-1.9643-3.2143-8.0357 1.6072-3.2143-1.0714-1.4286 2.6786-2.3214s-1.0714-3.3929 1.25-3.5714 2.6786 3.75 2.6786 3.75l1.7857 1.0714v1.4286l2.5 3.0357-1.9643 9.1071 1.0714 1.9643-8.75 0.17857z" fill="#211109" fill-rule="evenodd"/>
      <path d="m150.89 490.22 2.6786-0.35715" fill="#f2f200" fill-rule="evenodd" filter="url(#as)" stroke="#f9d300"/>
      <path d="m152.32 493.08 1.6071-1.25 1.0714 1.9643-1.4286 0.71429-1.25-1.4286z" fill="#f2f200" fill-rule="evenodd" filter="url(#ar)" stroke="#f9d300"/>
      <path d="m152.68 504.68 2.1429-1.9643 0.71429 1.9643h-2.8572z" fill="#f2f200" fill-rule="evenodd" filter="url(#aq)" stroke="#f9d300"/>
      <path d="m213.75 544.15 2.5 9.4643-15.179-3.0357 12.679-6.4286z" fill="#85521a" fill-rule="evenodd"/>
      <path d="m215.54 552.9c-0.17859-0.89286-4.6429-23.75-4.6429-23.75l1.9643-3.75s-3.0357-13.036 0.53573-18.214 6.25-5 6.25-5l12.5 0.35714s8.3929 1.6072 9.1071 10.179 1.6071 10.179 1.6071 10.179l5.1786 17.857 0.89285 8.5714-19.821 6.7857-13.571-3.2143z" fill="#3c240c" fill-rule="evenodd"/>
      <path d="m213.39 526.11 9.2857-1.25" fill="none" filter="url(#an)" stroke="#727272"/>
      <path d="m214.64 507.01c1.6071 0 11.071 0.35714 11.071 0.35714l3.0357-3.9286-9.8214-0.35714-4.2857 3.9286z" fill="#8d8d8c" fill-rule="evenodd" filter="url(#ap)" stroke="#8b8b8b"/>
      <path d="m229.29 521.11s1.4286 3.5714 3.5714 3.0357 4.4643-3.2143 5-6.0714-0.35714-7.8571-2.6786-9.2857-4.2857-1.7857-5.3571-1.0714-1.7857 4.2857-2.1429 5.5357 1.9643 8.0357 1.6072 7.8571z" fill="#533526" fill-rule="evenodd"/>
      <path d="m230.18 520.4s2.6786-1.0714 2.3214-3.9286-0.89286-4.8214-2.6786-4.6429-2.3214 2.3214-2.3214 3.0357 1.0714 4.1072 1.0714 4.1072l1.6071 1.4286z" fill="#0f0a09" fill-rule="evenodd"/>
      <path d="m228.57 555.93c-0.53571-0.89286-5.7143-27.857-5.7143-27.857l1.25-8.75s0.53573 5.1786 1.9643 6.4286l1.4286 1.25" fill="none" filter="url(#am)" stroke="#575757"/>
      <path d="m224.46 518.79s-0.53571-4.4643 0-7.3214 1.6072-4.6429 1.6072-4.6429" fill="none" filter="url(#ao)" stroke="#5d5d5d"/>
      <path d="m212.5 535.22s-5.1786-5.8929-5.3571-6.7857-3.0357-8.75-3.0357-11.071-0.17856-9.1071 0.53573-10.714 2.3214-7.3214 3.9286-8.3929 3.75-3.75 6.9643-3.75 7.5 0.71429 7.5 0.71429-7.5-2.1429-9.4643-2.1429-7.3214 1.9643-8.9286 3.2143-3.75 4.8214-4.8214 6.4286-2.3214 6.25-2.3214 7.6786-0.17856 7.3214-0.17856 8.5714 2.5 8.75 3.2143 10.536 3.9286 6.6071 5 8.0357 1.7857 1.4286 1.7857 1.4286l5.1786-1.9643v-1.7857z" fill="#2f1a07" fill-rule="evenodd"/>
      <path d="m200.54 522.72-4.8214 2.6786s-0.89285 2.8571 0.71429 4.2857 3.5714-0.35714 3.5714-0.35714l3.9286-1.6071s1.0714-2.6786 0.53571-3.5714-3.75-1.7857-3.9286-1.4286z" fill="#191006" fill-rule="evenodd"/>
      <path d="m196.07 501.65s-1.6071 1.25-1.6071 1.9643-0.71429 2.8572 0.17857 3.75 4.8214 2.6786 4.8214 2.6786 2.5-1.0714 2.8572-2.6786-0.35715-4.2857-0.35715-4.2857l-2.8572-1.6071-3.0357 0.17857z" fill="#191006" fill-rule="evenodd"/>
      <path d="m206.61 496.29-2.1428-6.25 6.0714-1.7857 1.7857 5.3571-5.7143 2.6786z" fill="#191006" fill-rule="evenodd"/>
      <path d="m206.61 525.04 4.2857-1.9643 1.25 1.25-0.17858-6.25v-5.1786l0.17858-5 3.3929-2.8572s-1.9643-2.8571-2.1429-4.4643-0.35714-4.6429-0.35714-4.6429-4.2857 1.6071-4.8214 2.5 0 10.179 0 10.179l-2.6786-1.7857-1.6072 7.3214 6.25 2.6786-0.71429 1.6071-4.8214 1.6071 1.9643 5z" fill="#191006" fill-rule="evenodd"/>
      <path d="m211.43 496.83s1.7857-1.6071 5.7143 0 8.75 5.5357 8.75 5.5357l3.9286-0.17857s-3.0357-4.2857-5.5357-5.8929-5.3572-1.9643-5.3572-1.9643-4.2857-0.35714-5 0-3.2143 2.6786-2.5 2.5z" fill="#422d0e" fill-rule="evenodd"/>
      <path d="m222.68 500.4-0.71429 1.6071-4.2857 0.35714v-5.3571l5 3.3929z" fill="#2b1711" fill-rule="evenodd"/>
      <path d="m219.82 494.33z" fill="#f4de07" fill-rule="evenodd" filter="url(#ad)" stroke="#f5e122"/>
      <path d="m220.36 494.15 0.17859-4.2857 5 1.4286-1.25 4.4643" fill="#110805" fill-rule="evenodd"/>
      <path d="m256.61 607.18c0.35715-1.0714-0.17857-4.6429-0.17857-4.6429l-3.3928-1.25-1.0714-8.2143-2.3214-1.7857-1.4286-8.9286-2.1428-1.25-1.9643-8.9286-1.4286-0.89286 5.7143 25.357 8.2143 10.536z" fill="#7d4910" fill-rule="evenodd"/>
      <path d="m248.04 592.9 2.3214-0.71429" fill="none" filter="url(#aa)" stroke="#fcde04"/>
      <path d="m253.75 602.72 1.6071-0.53572" fill="none" filter="url(#ac)" stroke="#fcde04"/>
      <path d="m245.54 582.18 1.6071-0.35714" fill="none" filter="url(#ab)" stroke="#fcde04"/>
      <path d="m277.14 607.54c0-0.89285-2.6786-47.143-2.6786-47.143l-3.0357-0.89286-1.4286-9.2857 3.5714-1.4286 1.4286 10.536 2.3214 0.71428 0.17857 7.8572 2.5 2.3214 1.25 9.4643 1.25 0.17857 1.7857 9.4643 2.3214 0.53571 1.25 8.5714 2.3214 1.25 11.964-5.7143s2.1429 9.2857 1.25 9.2857-12.143 5.3571-12.143 5.3571l-14.107-1.0714z" fill="#844f06" fill-rule="evenodd"/>
      <path d="m286.61 589.68 12.5-5.3571 0.35713 8.2143-11.786 5.3572-1.0714-8.2143z" fill="#885425" fill-rule="evenodd"/>
      <path d="m282.5 579.51 11.429-4.6429 1.0714 7.6786-11.25 5.5357-1.25-8.5714z" fill="#885425" fill-rule="evenodd"/>
      <path d="m279.64 569.86 11.25-4.8214 1.4286 7.5-11.786 5.3572-0.89286-8.0357z" fill="#885425" fill-rule="evenodd"/>
      <path d="m276.79 559.51 12.321-3.75 0.17856 7.1429-11.786 5-0.71428-8.3929z" fill="#84501e" fill-rule="evenodd"/>
      <path d="m273.21 548.97 11.964-3.9286 1.4286 8.3929-12.321 4.6429-1.0714-9.1072z" fill="#8b5a1a" fill-rule="evenodd"/>
      <path d="m276.25 558.61c0.71429-0.17857 10.714-3.75 10.714-3.75" fill="none" filter="url(#z)" stroke="#bda105" stroke-width="3.1"/>
      <path d="m279.46 568.97 9.4643-4.4643" fill="none" filter="url(#y)" stroke="#bda105" stroke-width="3.1"/>
      <path d="m281.79 578.97 10.893-5.1786" fill="none" filter="url(#x)" stroke="#bda105" stroke-width="3.1"/>
      <path d="m285.54 589.15 11.071-5.8929" fill="none" filter="url(#w)" stroke="#bda105" stroke-width="3.1"/>
      <path d="m289.82 598.97 10.357-5.5357" fill="none" filter="url(#v)" stroke="#bda105" stroke-width="3.1"/>
      <path d="m239.82 560.58 30-11.071 3.75 10.357-27.679 10.179 0.17857 11.25-2.6786-9.1071-0.89287-1.4286-2.6786-10.179z" fill="#581b0d" fill-rule="evenodd"/>
      <path d="m245.18 570.04 29.107-10 3.2143 47.679-16.25 5.7143-4.6429-5.8929 0.35715-4.6428-4.1072-2.1429-0.89285-7.3214-2.3214-2.5-1.25-8.3929-2.5-1.6071-0.71427-10.893z" fill="#2e1a14" fill-rule="evenodd"/>
      <path d="m246.61 570.04c0.7143 0 25.893-9.4643 25.893-9.4643" fill="none" filter="url(#u)" stroke="#666"/>
      <path d="m261.25 613.43 16.25-6.0714 13.929 0.71429 11.786-5 14.464 0.53571-3.3929 8.5714 0.17857 9.6429-6.7857 0.89285-15.714-1.6071-29.286-6.25-1.4286-1.4286z" fill="#b97e30" fill-rule="evenodd"/>
      <path d="m270 615.4 12.321-5.3572 30.357 2.6786 0.53572 8.5714-3.0357 0.53572-18.036-0.71429-22.143-5.7143z" fill="#582607" fill-rule="evenodd"/>
      <path d="m282.14 610.93 29.643 2.8571" fill="none" filter="url(#t)" stroke="#585858"/>
      <path d="m346.79 569.51-16.071 3.2143-2.5-3.5714-0.17857-10.893-6.4286 2.8571v9.4643s-2.8572 1.25-2.6786 5.1786 3.3929 5.7143 3.3929 5.7143v7.5s-6.0714 0-5.7143 8.75 15.357 2.5 15.357 2.5 4.1071-3.0357 1.9643-7.5-6.6071-4.2857-6.6071-4.2857l-0.17857-6.9643 3.3929-3.2143 14.643-2.5 0.35715-2.8571 1.9643-0.17857-0.71428-3.2143z" fill="#171309" fill-rule="evenodd"/>
      <path transform="translate(-61.429 -1.4286)" d="m387.86 577.54a1.6964 1.6071 0 1 1 -3.3928 0 1.6964 1.6071 0 1 1 3.3928 0z" fill="#b97e30"/>
      <path transform="translate(-61.429 -1.4286)" d="m390.36 597.27a3.75 2.5893 0 1 1 -7.5 0 3.75 2.5893 0 1 1 7.5 0z" fill="#b97e30"/>
      <path d="m366.07 573.08-1.4286-27.143 3.5714-0.35714s1.7857 1.4286 3.75 1.4286 4.1071-2.6786 4.1071-2.6786l10.536-1.9643s1.6071 1.7857 4.4643 1.4286 3.5714-2.1428 3.5714-2.1428l7.8571-1.4286s2.8572 1.4286 4.8214 1.25 3.0357-2.6786 3.0357-2.6786l5.3571-0.53571s1.7857 1.25 3.0357 1.0714 3.75-1.25 3.75-1.25l-45.714-3.9286s-11.607 0.53571-14.643 1.7857-6.9643 2.3214-8.0357 4.6429-5.3572 5.5357-7.3214 6.6071-5.3572 3.2143-5.3572 3.2143l0.53572 1.25 5-0.89286 0.71428 22.857s1.25 2.3214 8.5714 2.1429 10.357-2.5 9.8214-2.6786z" fill="#2a130b" fill-rule="evenodd"/>
      <path d="m361.61 572.01-0.89287-22.679" fill="none" filter="url(#p)" stroke="#2a2a2a"/>
      <path d="m356.25 571.47c-0.17857-1.0714-0.17857-21.429-0.17857-21.429" fill="none" filter="url(#o)" stroke="#2a2a2a"/>
      <path d="m351.61 570.76c0.17856-0.89286-0.35716-18.75-0.35716-18.75" fill="none" filter="url(#n)" stroke="#2a2a2a"/>
      <path d="m356.43 542.36c0.71429 0 20.179-1.7857 20.179-1.7857" fill="none" filter="url(#q)" stroke="#2a2a2a"/>
      <path d="m382.32 539.15 12.321-1.25" fill="none" filter="url(#s)" stroke="#2a2a2a"/>
      <path d="m363.93 537.72 19.821-0.89286" fill="none" filter="url(#r)" stroke="#2a2a2a"/>
      <path d="m347.68 572.9h-2.3214l-0.17859 4.4643s3.5714 3.75 11.071 3.2143 12.679-3.75 12.679-3.75v-4.4643l-1.9643-0.89285-1.0714 1.9643s-4.6429 1.9643-10 2.1429-8.5714-2.8571-8.2143-2.6786z" fill="#2a1206" fill-rule="evenodd"/>
      <path d="m332.14 377.01s19.286 26.071 26.429 24.643 17.857-16.429 17.857-16.429l27.5 29.286-0.71428-22.143-23.214-20.714-23.929-0.71429-7.5 3.9286-9.2857-1.7857-7.1429 3.9286z" fill="#433a40" fill-rule="evenodd"/>
      <path d="m302.14 393.08-3.2143 6.7857" fill="none" filter="url(#g)" stroke="#393939"/>
      <path d="m309.29 391.65 24.286 9.2857" fill="none" filter="url(#h)" stroke="#393939"/>
      <path d="m307.5 395.58 15 13.214" fill="none" filter="url(#i)" stroke="#393939"/>
      <path d="m305.36 397.36-1.0714 17.5" fill="none" filter="url(#j)" stroke="#393939"/>
      <path d="m320.36 558.08s1.4286-59.643 0.35715-66.071-7.1429-37.857-7.1429-37.857l5.3571 1.0714s6.4286 27.857 7.1429 33.214-0.35714 67.143-0.35714 67.143l-5.3572 2.5z" fill="#26581d" fill-rule="evenodd" opacity=".62397" stroke="#000"/>
      <path d="m343.93 545.93s3.2143-17.5 3.2143-28.929-2.5-28.929-2.5-28.929l-12.143-38.929 4.6429 2.1428 9.2857 32.5s5 27.143 5.3572 32.857-5.3572 28.214-5.3572 28.214l-2.5 1.0714z" fill="#26581d" fill-rule="evenodd" opacity=".62397" stroke="#000"/>
      <path d="m409.29 533.79s9.2857-9.2857 9.2857-30-7.8571-43.929-7.8571-43.929l-9.6429-15 5.7143-0.35714s15 24.643 16.071 47.857-7.8572 40.357-7.8572 40.357l-5.7143 1.0714z" fill="#26581d" fill-rule="evenodd" opacity=".62397" stroke="#000"/>
      <path d="m388.21 533.08 2.1429-8.5714 4.6428-1.0714-1.4286 9.2857-5.3571 0.35714z" fill="#26581d" fill-rule="evenodd" opacity=".62397" stroke="#000"/>
      <path d="m368.57 533.43 2.5-12.857-2.1429 0.71428-4.2857 12.143h3.9286z" fill="#26581d" fill-rule="evenodd" opacity=".62397" stroke="#000"/>
      <path d="m376.79 442.01 1.7857 7.8571 5-0.71428-2.5-6.7857-4.2857-0.35714z" fill="#26581d" fill-rule="evenodd" opacity=".62397" stroke="#000"/>
      <path d="m359.29 445.93 1.7857 7.5-5 0.35714-0.35714-5.7143 3.5714-2.1429z" fill="#26581d" fill-rule="evenodd" opacity=".62397" stroke="#000"/>
      <path d="m314.29 447.36s2.8571-15 0.71428-23.571-11.786-31.429-11.786-31.429l5.7143-2.8571s10.357 28.929 10.357 32.143-1.0714 24.643-1.0714 24.643l-3.9286 1.0714z" fill="#26581d" fill-rule="evenodd" opacity=".62397" stroke="#000"/>
      <path d="m331.07 443.08s8.9286-10.714 8.5714-20.714-15.357-45.357-15.357-45.357l7.8571 0.71429 9.6429 35s3.2143 13.214 1.7857 16.429-8.2143 14.286-8.2143 14.286l-4.2857-0.35714z" fill="#26581d" fill-rule="evenodd" opacity=".62397" stroke="#000"/>
      <path d="m351.43 436.29s5.3572-16.071 5.3572-21.786-10.714-37.143-10.714-37.143l6.7857-1.0714 7.8572 31.786s1.7857 10.357 0.71428 12.143-3.2143 16.071-3.2143 16.071h-6.7857z" fill="#26581d" fill-rule="evenodd" opacity=".62397" stroke="#000"/>
      <path d="m375.36 434.15s5.7143-8.2143 3.5714-18.214-12.143-41.071-12.143-41.071l5-1.4286 10.714 35.714s1.7857 10.714 1.7857 13.571-5.3572 12.5-5.3572 12.5l-3.5714-1.0714z" fill="#26581d" fill-rule="evenodd" opacity=".62397" stroke="#000"/>
      <path d="m397.14 434.15s5.3571-6.7857 4.6429-16.786-12.857-42.5-12.857-42.5l4.2857-0.35714 11.786 37.5s1.0714 8.2143 0.71429 12.143-3.9286 11.429-3.9286 11.429l-4.6429-1.4286z" fill="#26581d" fill-rule="evenodd" opacity=".62397" stroke="#000"/>
      <path d="m379.29 374.15-1.7857 9.2857" fill="none" filter="url(#ey)" stroke="#393939"/>
      <path d="m382.14 377.36 0.71428 10.714" fill="none" filter="url(#ez)" stroke="#393939"/>
      <path d="m387.14 382.36v10.714" fill="none" filter="url(#fa)" stroke="#393939"/>
      <path d="m360.71 375.22 3.9286 11.429" fill="none" filter="url(#l)" stroke="#393939"/>
      <path d="m356.79 373.43c0.35714 1.4286 1.7857 13.571 1.7857 13.571" fill="none" filter="url(#m)" stroke="#393939"/>
      <path d="m311.43 387.01 10.714 2.5" fill="none" filter="url(#k)" stroke="#393939"/>
      <path d="m401.43 385.93-5 6.4286" fill="none" filter="url(#fb)" stroke="#393939"/>
      <path d="m398.93 382.36-9.2857 3.2143" fill="none" filter="url(#fc)" stroke="#393939"/>
      <path d="m405.71 387.36-5 11.429" fill="none" filter="url(#fd)" stroke="#393939"/>
      <path d="m300.71 462.01-6.0714 13.571" fill="none" filter="url(#es)" stroke="#393939"/>
      <path d="m307.86 462.72 15.357 16.071" fill="none" filter="url(#et)" stroke="#393939"/>
      <path d="m308.57 458.43 25 11.786" fill="none" filter="url(#eu)" stroke="#393939"/>
      <path d="m303.93 452.01 7.8572-22.5" fill="none" filter="url(#ev)" stroke="#393939"/>
      <path d="m298.93 456.29-3.2143-5.7143" fill="none" filter="url(#ew)" stroke="#393939"/>
      <path d="m308.21 450.22 16.429-27.5" fill="none" filter="url(#ex)" stroke="#393939"/>
      <path d="m420.71 450.22-2.1429 15" fill="none" filter="url(#el)" stroke="#393939"/>
      <path d="m416.43 446.65-5.7143 12.143" fill="none" filter="url(#em)" stroke="#393939"/>
      <path d="m414.64 444.51-8.5714 5" fill="none" filter="url(#en)" stroke="#393939"/>
      <path d="m421.07 437.72c-0.71427-1.4286-7.5-20.714-7.5-20.714" fill="none" filter="url(#eo)" stroke="#393939"/>
      <path d="m416.43 435.93-9.2857-16.071" fill="none" filter="url(#ep)" stroke="#393939"/>
      <path d="m413.93 436.29-8.2143-6.0714" fill="none" filter="url(#eq)" stroke="#393939"/>
      <path d="m423.21 437.72 2.5-9.6429" fill="none" filter="url(#er)" stroke="#393939"/>
      <path d="m428.21 532.72-15.714-1.0714" fill="none" filter="url(#eh)" stroke="#393939"/>
      <path d="m431.07 527.72c-1.0714-1.4286-12.5-11.429-12.5-11.429" fill="none" filter="url(#ei)" stroke="#393939"/>
      <path d="m433.57 527.01-3.2143-15.357" fill="none" filter="url(#ej)" stroke="#393939"/>
      <path d="m427.5 529.51-10.714-3.9286" fill="none" filter="url(#ek)" stroke="#393939"/>
      <path d="m302.14 556.29 21.429-28.214" fill="none" filter="url(#f)" stroke="#393939"/>
      <path d="m306.43 559.15c1.0714-1.4286 29.286-22.143 29.286-22.143" fill="none" filter="url(#f)" stroke="#393939"/>
      <path d="m306.07 564.15 12.5-5.3572" fill="none" filter="url(#ef)" stroke="#393939"/>
      <path d="m296.79 558.08-5.3572-8.2143" fill="none" filter="url(#eg)" stroke="#393939"/>
      <path d="m343.04 511.11c-0.35715-0.71428-0.89286-3.75-0.89286-3.75s7.1429-0.53571 6.4286-0.53571-3.75-3.5714-3.75-3.5714l6.9643-1.0714s-4.4643-2.8571-3.3929-3.0357 5.5357 0 5.5357 0l1.9643-4.6429s-6.9643-9.6429-6.7857-12.679 0.17856-3.2143 0.17856-3.2143l-5-3.2143s4.4643-0.89286 5.1786-0.89286 1.7857-1.7857 1.7857-1.7857l4.8214-0.35715s0.17857-2.6786 1.9643-4.1071 2.8571-1.25 1.6071-1.9643-3.75-0.89285-3.75-0.89285-0.35714-0.89286-1.25 0.17857-0.89286 2.1429-0.89286 2.1429 0.89286 2.6786-1.0714 0.53571-4.1071-5.7143-4.8214-6.0714-3.0357-1.25-2.5-1.9643 1.25-1.25 1.25-1.25l3.0357 2.6786-1.6071-5.5357 3.2143 1.6072 5.5357-4.1072 2.8571 1.6072s2.6786 1.25 2.6786 0-1.4286-3.5714 0.35714-2.1429 2.3214 2.3214 2.3214 2.3214 3.3929-1.4286 4.4643-3.0357 1.25-3.75 1.25-3.75l1.9643 3.9286v-3.0357s12.679 8.5714 12.679 7.5-1.6072-6.7857-1.6072-6.7857l9.6429 2.8571s2.3214-1.6071 2.8571-0.89286 3.9286 6.9643 3.9286 6.9643l1.7857-1.25 4.8214 3.75s-2.3214 1.7857-1.4286 1.7857 4.8214 1.6071 4.8214 1.6071-1.9643 2.1429-1.25 2.1429 5.5357 3.0357 5.5357 3.0357l-1.7857 3.3928 4.2857 2.1429-5.5357 2.5 2.6786 3.2143-4.6429-0.17858 1.9643 10.179-1.6071 0.71428s0.71429 1.25-0.17857 3.0357-2.6786 2.5-2.6786 3.9286 0.53571 2.1428 0.17857 4.1071-1.9643 3.3929-1.7857 4.1071 1.6071 0.71429 0.71427 1.4286-3.75 2.5-2.6786 2.6786 3.0357 2.1428 3.0357 2.1428 2.8572-1.6071 2.1429-0.53571-2.3214 8.5714-2.3214 8.5714-2.1428-5.3572-3.9286-3.75-3.3929 4.4643-7.3214 5.7143-4.4643 4.1072-7.5 1.0714 6.4286-7.6786-5.3571-5.3571-5.7143 3.0357-7.6786 1.7857-3.75-2.6786-3.75-2.6786-5.1786 8.3929-6.0714 6.9643-1.0714-2.1429-1.0714-2.1429l0.35714 3.75-8.75 8.9286 1.6072-7.5s-4.6429 0.89286-4.6429 0-3.9286-5-0.89286-5 8.5714-4.6429 5.7143-6.0714-4.6429-0.17857-5.5357 0.35715-3.3928 1.6071-3.3928 1.6071l1.7857-8.2143h-6.7857z" fill="#0c0707" fill-rule="evenodd" stroke="#000"/>
      <path d="m393.21 481.47s3.9286-18.75-20.357-16.786-10.893 18.036-10.893 18.036l3.75 4.4643s0.35714 4.4643 1.4286 4.6429 5.3571-0.89286 5.3571-0.89286l1.4286 2.1429 1.25-2.1429 2.1429 2.8571 1.25-3.2143 1.6071-0.17857 1.0714 2.6786 2.3214-3.5714 1.0714 0.53571s0.7143 3.5714 1.0714 2.3214 0.71428-3.2143 0.71428-3.2143l6.0714-0.71429s1.4286 0.17857 1.9643-2.6786-1.0714-4.1071-1.25-4.2857z" fill="#b59b8b" fill-rule="evenodd" stroke="#000"/>
      <path d="m374.29 499.15s-1.4286 2.8571 1.6071 2.8571 8.9286 0.17857 10.179-1.6071 2.5-4.8214 0.89286-3.9286-0.89286 3.3928-2.8571 2.1428-2.8572-4.4643-3.3929-3.3928 0.71428 2.3214-0.71429 2.1428-0.71428-2.3214-1.7857-0.89285-0.89286 2.6786-1.9643 2.5-1.7857 0.17857-1.9643 0.17857z" fill="#b59b8b" fill-rule="evenodd" stroke="#000"/>
      <path d="m356.79 478.97s-1.6072 1.0714-1.4286 1.7857 4.8214 8.9286 4.8214 8.9286-3.2143-0.35714-3.0357 0.89286-0.5357 4.8214 2.5 5.8929 6.4286 2.6786 6.25 0.71428-1.9643-8.5714-2.3214-9.6429-4.8214-8.3928-4.8214-8.3928l-1.9643-0.17857z" fill="#b59b8b" fill-rule="evenodd" stroke="#000"/>
      <path d="m396.25 472.9-0.53571 7.5 1.7857 5.8928s0.89286 5 4.2857 4.1072 6.0714-4.6429 5.8928-6.4286 1.4286-3.5714-0.89285-2.8572-2.3214 2.5-3.5714 0 1.4286-7.6786-1.6071-8.3928-5.5357 0.17857-5.3572 0.17857z" fill="#b59b8b" fill-rule="evenodd" stroke="#000"/>
      <path d="m372.68 495.04s-1.0714 2.5-2.3214 3.75-5.3572-0.53571-6.9643 1.4286-4.2857 3.3928-2.6786 4.6428 3.3929 0.53572 3.3929 0.53572-2.8572 5.7143-0.89287 7.6786 3.5714 0.89286 4.1071-0.17857 1.4286-2.6786 1.4286-5.1786-1.25-3.0357 0.53572-4.8214 3.3928-2.8572 3.5714-4.4643 0.17856-3.2143-0.17859-3.3929z" fill="#b59b8b" fill-rule="evenodd" stroke="#000"/>
      <path d="m387.86 494.33 10.357 0.89286s4.2857-4.6429 6.6071-3.2143 3.3929 2.3214 2.1429 4.2857-3.0357 0.71429-3.0357 0.71429 3.9286 7.1429 1.6072 8.2143-6.4286 2.1428-8.2143 0.89285-1.4286-0.71428-0.35714-3.0357 3.2143-4.1071 0.89287-4.4643-6.9643-2.6786-7.8572-3.0357-1.7857-1.25-2.1428-1.25z" fill="#b59b8b" fill-rule="evenodd" stroke="#000"/>
      <path d="m381.79 472.18s7.5 0.71429 7.8571 5.5357-3.75 7.5-3.75 7.5-5-0.35715-7.5-5.1786 3.3929-7.6786 3.3929-7.8571z" fill="#0c0707" fill-rule="evenodd" stroke="#000"/>
      <path d="m365 474.51s6.0714 0.17857 6.7857 4.4643-3.0357 6.6071-3.0357 6.6071-3.5714 0.35714-5.7143-5.3571 1.9643-5.5357 1.9643-5.7143z" fill="#0c0707" fill-rule="evenodd" stroke="#000"/>
      <path d="m376.25 485.58c1.25 0 3.9286 0.53571 3.9286 1.6071s-3.5714 1.7857-3.5714 1.7857-2.8572 0.17857-3.2143-1.25 3.75-2.3214 3.75-2.3214l-0.89286 0.17857z" fill="#0c0707" fill-rule="evenodd" stroke="#000"/>
      <path transform="translate(-61.429 -1.4286)" d="m371.43 391.29a4.1071 3.5714 0 1 1 -8.2143 0 4.1071 3.5714 0 1 1 8.2143 0z" fill="#3c2f2c" stroke="#393939" stroke-linejoin="round" stroke-width="3.1"/>
      <path transform="translate(-64.107 66.071)" d="m371.43 391.29a4.1071 3.5714 0 1 1 -8.2143 0 4.1071 3.5714 0 1 1 8.2143 0z" fill="#3c2f2c" stroke="#393939" stroke-linejoin="round" stroke-width="3.1"/>
      <path transform="translate(-65.893 170)" d="m371.43 391.29a4.1071 3.5714 0 1 1 -8.2143 0 4.1071 3.5714 0 1 1 8.2143 0z" fill="#3c2f2c" stroke="#393939" stroke-linejoin="round" stroke-width="3.1"/>
      <path transform="translate(66.25 140)" d="m371.43 391.29a4.1071 3.5714 0 1 1 -8.2143 0 4.1071 3.5714 0 1 1 8.2143 0z" fill="#3c2f2c" stroke="#393939" stroke-linejoin="round" stroke-width="3.1"/>
      <path transform="translate(52.321 51.786)" d="m371.43 391.29a4.1071 3.5714 0 1 1 -8.2143 0 4.1071 3.5714 0 1 1 8.2143 0z" fill="#3c2f2c" stroke="#393939" stroke-linejoin="round" stroke-width="3.1"/>
      <path transform="translate(36.25 -9.6428)" d="m371.43 391.29a4.1071 3.5714 0 1 1 -8.2143 0 4.1071 3.5714 0 1 1 8.2143 0z" fill="#3c2f2c" stroke="#393939" stroke-linejoin="round" stroke-width="3.1"/>
      <path transform="translate(22.679 49.286)" d="m371.43 391.29a4.1071 3.5714 0 1 1 -8.2143 0 4.1071 3.5714 0 1 1 8.2143 0z" fill="#3c2f2c" stroke="#393939" stroke-linejoin="round" stroke-width="3.1"/>
      <path transform="translate(.17855 50.357)" d="m371.43 391.29a4.1071 3.5714 0 1 1 -8.2143 0 4.1071 3.5714 0 1 1 8.2143 0z" fill="#3c2f2c" stroke="#393939" stroke-linejoin="round" stroke-width="3.1"/>
      <path transform="translate(-28.036 52.5)" d="m371.43 391.29a4.1071 3.5714 0 1 1 -8.2143 0 4.1071 3.5714 0 1 1 8.2143 0z" fill="#3c2f2c" stroke="#393939" stroke-linejoin="round" stroke-width="3.1"/>
      <path transform="translate(-44.821 58.571)" d="m371.43 391.29a4.1071 3.5714 0 1 1 -8.2143 0 4.1071 3.5714 0 1 1 8.2143 0z" fill="#3c2f2c" stroke="#393939" stroke-linejoin="round" stroke-width="3.1"/>
      <path d="m292.38 445.85s-3.5355-3.283-6.8185-1.5152-5.3033 4.7982-5.3033 4.7982-2.0203-2.0203-4.5457-1.5152-5.8084 2.7779-5.8084 2.7779-2.0203 4.7982-1.5152 7.8287 4.2931 10.607 7.5761 9.0914 5.3033-5.5558 7.0711-5.0508 2.0203 1.0102 6.3134 0 5.5558-1.5152 5.5558-1.5152l-2.5254-14.9z" fill="#3d1e0a" fill-rule="evenodd"/>
      <path d="m305.26 380.19s2.2728-4.2932-4.0406-4.0406-10.354 4.5457-10.354 4.5457-4.2932-4.2932-7.5761-2.7779-7.8287 6.566-7.3236 10.859 5.0508 11.364 8.5863 9.849 6.0609-6.0609 6.0609-6.0609h1.7678l1.0102-8.5863 11.869-3.7881z" fill="#4d1e12" fill-rule="evenodd"/>
      <path d="m391.88 372.11 4.2931-2.2728 7.8287 0.50507s6.566-1.7678 8.0812 0.25254 3.7881 6.0609 3.5355 8.0812-1.2627 5.5558-2.5254 5.5558-8.5863-12.627-8.5863-12.627l-10.354 1.5152-2.2728-1.0102z" fill="#825a29" fill-rule="evenodd"/>
      <path d="m339.35 372.36-0.75761-29.8h-2.0203l-0.50507-4.5457 1.7678-0.25254v-2.7779l3.5355-2.5254-2.2728-51.77h-2.2728l-0.50507-2.7779h-1.2627s-2.7779-7.3236 5.5558-7.8287 8.8388 5.8084 8.8388 5.8084l-2.0203 0.50508v2.2728l-2.0203 0.75762 4.2932 51.77 4.0406 1.2627 0.25253 3.5355 2.2728 0.50507v4.5457l-4.5457 0.50508 2.2728 30.557-4.7982 2.7779-9.849-2.5254z" fill="#532c2b" fill-rule="evenodd"/>
      <path d="m340.36 337.01 7.0711 0.50508 5.3033-0.75762" fill="#a68b85" fill-rule="evenodd" filter="url(#ec)" stroke="#747474"/>
      <path d="m342.88 333.47 3.7881 0.50507 3.5355-1.2627" fill="#a68b85" fill-rule="evenodd" filter="url(#ed)" stroke="#747474"/>
      <path d="m339.1 270.59s1.0102 4.2932 2.0203 3.283 3.283-0.50508 3.283-0.50508l-0.75763-2.5254-4.5457-0.25254z" fill="#a68b85" fill-rule="evenodd" filter="url(#ee)" stroke="#747474"/>
      <path d="m318.14 364.79v2.5254l57.326-2.0203-0.25254-2.7779-42.174 3.0305-2.0203-1.2627-12.879 0.50508z" fill="#583316" fill-rule="evenodd"/>
      <path d="m330.76 364.28 43.184-2.7779 1.5152 0.50508-41.669 3.283-3.0304-1.0102z" fill="#8b6d66" fill-rule="evenodd" stroke="#656565"/>
      <path d="m338.84 318.57-1.0102-18.435 10.102-1.0102-1.0102-13.637s9.0914-3.7881 15.152-3.7881 9.0914 3.0305 14.9 2.0203 17.678-6.3134 19.951-6.3134 2.0203 17.93 2.7779 26.264 3.7881 25.001 3.7881 25.001-6.566-2.0203-12.374-1.0102-11.112 5.0508-16.92 4.2932-6.566-4.7982-12.374-3.0305-11.617 3.0305-11.617 3.0305l-1.0102-14.647-10.354 1.2627z" fill="#422e1a" fill-rule="evenodd" stroke="#0b0b0b" stroke-width=".3"/>
      <path transform="translate(-61.239 -1.8705)" d="m447.43 309.87a15.531 19.414 0 1 1 -31.062 0 15.531 19.414 0 1 1 31.062 0z" fill="#2f2019"/>
      <path d="m365.49 306.7-0.50508-7.1342s0-5.5558 5.619-5.3033 5.9346 6.6923 5.9346 6.6923l-1.1996 4.1038 0.75761 1.3258s-0.06313 1.7678-0.31566 1.894-2.3991 0.3788-2.3991 0.3788l-1.0733 0.37881-0.1894 1.0733-4.2931-0.31567v-1.7678s-0.8839 0.25254-1.5784-0.06314-0.69448-1.2627-0.75761-1.2627z" fill="#7f6238" fill-rule="evenodd" stroke="#000" stroke-width=".5"/>
      <path d="m367.63 310.74s-0.63134 3.9775 2.0203 4.1038 2.5254-3.4724 2.5254-3.4724l-4.5457-0.63135z" fill="#7f6238" fill-rule="evenodd" stroke="#000" stroke-width=".5"/>
      <path d="m366.75 311.06s-1.5784 0.69448-1.9572 0.56821-1.3258-1.3258-2.6516-1.1364-2.7779 1.1996-2.336 2.2097 1.7046 0.44195 1.8309 1.0733-1.7046 5.4296 0.31569 5.177 3.7249-1.5784 3.5355-2.3991-1.0102 0-0.82075-1.4521 0.18941-1.7046 1.0733-2.1466 1.3258-0.69448 1.3258-0.69448l-0.31567-1.1996z" fill="#7f6238" fill-rule="evenodd" stroke="#000" stroke-width=".5"/>
      <path d="m372.81 313.33 2.5885 1.6415 0.37882 2.5885-1.389 0.18941s-1.2627 3.283 2.5254 3.1567 1.1996-4.6088 1.7678-4.4194 3.9143 0 3.0305-1.5784-2.5885-2.2097-3.9775-2.0834-1.0733 0.75762-1.7678 0.44194-2.841-1.1996-2.841-1.1996l-0.31567 1.2627z" fill="#7f6238" fill-rule="evenodd" stroke="#000" stroke-width=".5"/>
      <path d="m377.8 301.02s-1.2627 3.2199-1.0733 4.0406 0.50507 1.5152 0.44194 2.336-0.94702 2.7148-0.63134 3.0305 2.1466 2.2097 4.23-0.06313 2.0203-3.3461 1.5152-3.5987-1.894-0.25254-1.894-0.25254-0.18939-1.2627 0.06313-2.0834 0.63135-3.0936 0.63135-3.0936l-3.283-0.31567z" fill="#7f6238" fill-rule="evenodd" stroke="#000" stroke-width=".5"/>
      <path d="m361.57 299.06s0.63134 5.4296 0.37882 5.3033-1.5784-1.389-1.9572-0.50508-0.82075 5.1139 1.389 5.4296 2.841-0.50508 2.9673-1.0102 0.63134-2.5254 0.50508-2.9042-0.75761-6.1872-0.75761-6.1872l-2.5254-0.12627z" fill="#7f6238" fill-rule="evenodd" stroke="#000" stroke-width=".5"/>
      <path transform="translate(-61.429 -1.4286)" d="m430.39 302.99a0.94702 2.557 0 1 1 -1.894 0 0.94702 2.557 0 1 1 1.894 0z" fill="#261815"/>
      <path transform="translate(-61.429 -1.4286)" d="m435.38 303.59a1.1364 2.5885 0 1 1 -2.2728 0 1.1364 2.5885 0 1 1 2.2728 0z" fill="#261815"/>
      <path transform="translate(-61.429 -1.4286)" d="m432.47 307.63a1.0102 0.82075 0 1 1 -2.0203 0 1.0102 0.82075 0 1 1 2.0203 0z" fill="#261815"/>
      <path transform="translate(130.17 270.06)" d="m310.54 373.51 18.393-12.143-1.4286-0.35714-11.786 1.9643-16.786 9.2857 11.607 1.25z" fill="#171410" fill-rule="evenodd"/>
    </g>
  </g>
</svg>